<mxfile host="app.diagrams.net" modified="2022-09-12T14:13:22.845Z" agent="5.0 (Windows NT 10.0; Win64; x64) AppleWebKit/537.36 (KHTML, like Gecko) Chrome/104.0.5112.102 Safari/537.36" etag="xx2xMS2RzBt1saRhIzxS" version="20.3.0" type="github" pages="5">
  <diagram id="Znws80n49v_wvFhrRm50" name="General View">
    <mxGraphModel dx="1422" dy="758" grid="1" gridSize="10" guides="1" tooltips="1" connect="1" arrows="1" fold="1" page="1" pageScale="1" pageWidth="827" pageHeight="1169" math="0" shadow="0">
      <root>
        <mxCell id="0" />
        <mxCell id="1" parent="0" />
        <mxCell id="-6zr8g8bWNjjjz_1pWaL-22" value="&lt;b style=&quot;text-align: center;&quot;&gt;Client&lt;/b&gt;" style="verticalAlign=top;align=left;spacingTop=8;spacingLeft=2;spacingRight=12;shape=cube;size=10;direction=south;fontStyle=4;html=1;" parent="1" vertex="1">
          <mxGeometry x="60" y="580" width="310" height="540" as="geometry" />
        </mxCell>
        <mxCell id="-6zr8g8bWNjjjz_1pWaL-5" value="CroquetAdapterServer" style="verticalAlign=top;align=left;spacingTop=8;spacingLeft=2;spacingRight=12;shape=cube;size=10;direction=south;fontStyle=4;html=1;" parent="1" vertex="1">
          <mxGeometry x="30" y="160" width="750" height="360" as="geometry" />
        </mxCell>
        <mxCell id="-6zr8g8bWNjjjz_1pWaL-3" value="«Java»&lt;br&gt;&lt;b&gt;CroquetAdapterClient&lt;/b&gt;" style="html=1;dropTarget=0;" parent="1" vertex="1">
          <mxGeometry x="130" y="625" width="170" height="75" as="geometry" />
        </mxCell>
        <mxCell id="-6zr8g8bWNjjjz_1pWaL-4" value="" style="shape=module;jettyWidth=8;jettyHeight=4;" parent="-6zr8g8bWNjjjz_1pWaL-3" vertex="1">
          <mxGeometry x="1" width="20" height="20" relative="1" as="geometry">
            <mxPoint x="-27" y="7" as="offset" />
          </mxGeometry>
        </mxCell>
        <mxCell id="-6zr8g8bWNjjjz_1pWaL-12" value="«Replicators»&lt;br&gt;&lt;b&gt;Croquet&lt;/b&gt;" style="html=1;dropTarget=0;" parent="1" vertex="1">
          <mxGeometry x="320" y="20" width="170" height="90" as="geometry" />
        </mxCell>
        <mxCell id="-6zr8g8bWNjjjz_1pWaL-13" value="" style="shape=module;jettyWidth=8;jettyHeight=4;" parent="-6zr8g8bWNjjjz_1pWaL-12" vertex="1">
          <mxGeometry x="1" width="20" height="20" relative="1" as="geometry">
            <mxPoint x="-27" y="7" as="offset" />
          </mxGeometry>
        </mxCell>
        <mxCell id="-6zr8g8bWNjjjz_1pWaL-27" value="«Java»&lt;br&gt;&lt;b&gt;CroquetController&lt;/b&gt;" style="html=1;dropTarget=0;" parent="1" vertex="1">
          <mxGeometry x="230" y="902.5" width="120" height="75" as="geometry" />
        </mxCell>
        <mxCell id="-6zr8g8bWNjjjz_1pWaL-28" value="" style="shape=module;jettyWidth=8;jettyHeight=4;" parent="-6zr8g8bWNjjjz_1pWaL-27" vertex="1">
          <mxGeometry x="1" width="20" height="20" relative="1" as="geometry">
            <mxPoint x="-27" y="7" as="offset" />
          </mxGeometry>
        </mxCell>
        <mxCell id="-6zr8g8bWNjjjz_1pWaL-59" value="AdapterInstance" style="verticalAlign=top;align=left;spacingTop=8;spacingLeft=2;spacingRight=12;shape=cube;size=10;direction=south;fontStyle=4;html=1;" parent="1" vertex="1">
          <mxGeometry x="60" y="210" width="310" height="280" as="geometry" />
        </mxCell>
        <mxCell id="-6zr8g8bWNjjjz_1pWaL-65" style="edgeStyle=none;rounded=0;orthogonalLoop=1;jettySize=auto;html=1;exitX=0;exitY=0;exitDx=0;exitDy=150;entryX=0.5;entryY=1;entryDx=0;entryDy=0;startArrow=classic;startFill=1;dashed=1;exitPerimeter=0;" parent="1" source="-6zr8g8bWNjjjz_1pWaL-59" target="-6zr8g8bWNjjjz_1pWaL-12" edge="1">
          <mxGeometry relative="1" as="geometry" />
        </mxCell>
        <mxCell id="-6zr8g8bWNjjjz_1pWaL-60" value="«Javascript»&lt;br&gt;&lt;b&gt;CroquetModel&lt;/b&gt;" style="html=1;dropTarget=0;" parent="1" vertex="1">
          <mxGeometry x="230" y="260" width="115" height="70" as="geometry" />
        </mxCell>
        <mxCell id="-6zr8g8bWNjjjz_1pWaL-61" value="" style="shape=module;jettyWidth=8;jettyHeight=4;" parent="-6zr8g8bWNjjjz_1pWaL-60" vertex="1">
          <mxGeometry x="1" width="20" height="20" relative="1" as="geometry">
            <mxPoint x="-27" y="7" as="offset" />
          </mxGeometry>
        </mxCell>
        <mxCell id="-6zr8g8bWNjjjz_1pWaL-64" style="edgeStyle=none;rounded=0;orthogonalLoop=1;jettySize=auto;html=1;exitX=1;exitY=0.5;exitDx=0;exitDy=0;entryX=0;entryY=0.5;entryDx=0;entryDy=0;startArrow=classic;startFill=1;" parent="1" source="-6zr8g8bWNjjjz_1pWaL-62" target="-6zr8g8bWNjjjz_1pWaL-60" edge="1">
          <mxGeometry relative="1" as="geometry" />
        </mxCell>
        <mxCell id="-6zr8g8bWNjjjz_1pWaL-62" value="«Javascript»&lt;br&gt;&lt;b&gt;CroquetView&lt;/b&gt;" style="html=1;dropTarget=0;" parent="1" vertex="1">
          <mxGeometry x="70" y="260" width="115" height="70" as="geometry" />
        </mxCell>
        <mxCell id="-6zr8g8bWNjjjz_1pWaL-63" value="" style="shape=module;jettyWidth=8;jettyHeight=4;" parent="-6zr8g8bWNjjjz_1pWaL-62" vertex="1">
          <mxGeometry x="1" width="20" height="20" relative="1" as="geometry">
            <mxPoint x="-27" y="7" as="offset" />
          </mxGeometry>
        </mxCell>
        <mxCell id="-6zr8g8bWNjjjz_1pWaL-115" style="edgeStyle=none;rounded=0;orthogonalLoop=1;jettySize=auto;html=1;exitX=0.5;exitY=0;exitDx=0;exitDy=0;entryX=0.5;entryY=1;entryDx=0;entryDy=0;dashed=1;startArrow=classic;startFill=1;" parent="1" source="-6zr8g8bWNjjjz_1pWaL-3" target="-6zr8g8bWNjjjz_1pWaL-66" edge="1">
          <mxGeometry relative="1" as="geometry" />
        </mxCell>
        <mxCell id="-6zr8g8bWNjjjz_1pWaL-68" style="edgeStyle=none;rounded=0;orthogonalLoop=1;jettySize=auto;html=1;exitX=0.5;exitY=0;exitDx=0;exitDy=0;entryX=0.5;entryY=1;entryDx=0;entryDy=0;startArrow=classic;startFill=1;" parent="1" source="-6zr8g8bWNjjjz_1pWaL-66" target="-6zr8g8bWNjjjz_1pWaL-62" edge="1">
          <mxGeometry relative="1" as="geometry" />
        </mxCell>
        <mxCell id="-6zr8g8bWNjjjz_1pWaL-69" style="edgeStyle=none;rounded=0;orthogonalLoop=1;jettySize=auto;html=1;exitX=0.5;exitY=0;exitDx=0;exitDy=0;entryX=0.5;entryY=1;entryDx=0;entryDy=0;startArrow=classic;startFill=1;" parent="1" source="-6zr8g8bWNjjjz_1pWaL-66" target="-6zr8g8bWNjjjz_1pWaL-60" edge="1">
          <mxGeometry relative="1" as="geometry" />
        </mxCell>
        <mxCell id="-6zr8g8bWNjjjz_1pWaL-66" value="«Javascript»&lt;br&gt;&lt;b&gt;ClientHandler&lt;/b&gt;" style="html=1;dropTarget=0;" parent="1" vertex="1">
          <mxGeometry x="157.5" y="390" width="115" height="70" as="geometry" />
        </mxCell>
        <mxCell id="-6zr8g8bWNjjjz_1pWaL-67" value="" style="shape=module;jettyWidth=8;jettyHeight=4;" parent="-6zr8g8bWNjjjz_1pWaL-66" vertex="1">
          <mxGeometry x="1" width="20" height="20" relative="1" as="geometry">
            <mxPoint x="-27" y="7" as="offset" />
          </mxGeometry>
        </mxCell>
        <mxCell id="-6zr8g8bWNjjjz_1pWaL-71" value="AdapterInstance" style="verticalAlign=top;align=left;spacingTop=8;spacingLeft=2;spacingRight=12;shape=cube;size=10;direction=south;fontStyle=4;html=1;" parent="1" vertex="1">
          <mxGeometry x="435" y="210" width="310" height="280" as="geometry" />
        </mxCell>
        <mxCell id="-6zr8g8bWNjjjz_1pWaL-91" style="edgeStyle=none;rounded=0;orthogonalLoop=1;jettySize=auto;html=1;exitX=0;exitY=0;exitDx=0;exitDy=150;entryX=0.5;entryY=1;entryDx=0;entryDy=0;startArrow=classic;startFill=1;dashed=1;exitPerimeter=0;" parent="1" source="-6zr8g8bWNjjjz_1pWaL-71" target="-6zr8g8bWNjjjz_1pWaL-12" edge="1">
          <mxGeometry relative="1" as="geometry" />
        </mxCell>
        <mxCell id="-6zr8g8bWNjjjz_1pWaL-72" value="«Javascript»&lt;br&gt;&lt;b&gt;CroquetModel&lt;/b&gt;" style="html=1;dropTarget=0;" parent="1" vertex="1">
          <mxGeometry x="605" y="260" width="115" height="70" as="geometry" />
        </mxCell>
        <mxCell id="-6zr8g8bWNjjjz_1pWaL-73" value="" style="shape=module;jettyWidth=8;jettyHeight=4;" parent="-6zr8g8bWNjjjz_1pWaL-72" vertex="1">
          <mxGeometry x="1" width="20" height="20" relative="1" as="geometry">
            <mxPoint x="-27" y="7" as="offset" />
          </mxGeometry>
        </mxCell>
        <mxCell id="-6zr8g8bWNjjjz_1pWaL-74" style="edgeStyle=none;rounded=0;orthogonalLoop=1;jettySize=auto;html=1;exitX=1;exitY=0.5;exitDx=0;exitDy=0;entryX=0;entryY=0.5;entryDx=0;entryDy=0;startArrow=classic;startFill=1;" parent="1" source="-6zr8g8bWNjjjz_1pWaL-75" target="-6zr8g8bWNjjjz_1pWaL-72" edge="1">
          <mxGeometry relative="1" as="geometry" />
        </mxCell>
        <mxCell id="-6zr8g8bWNjjjz_1pWaL-75" value="«Javascript»&lt;br&gt;&lt;b&gt;CroquetView&lt;/b&gt;" style="html=1;dropTarget=0;" parent="1" vertex="1">
          <mxGeometry x="445" y="260" width="115" height="70" as="geometry" />
        </mxCell>
        <mxCell id="-6zr8g8bWNjjjz_1pWaL-76" value="" style="shape=module;jettyWidth=8;jettyHeight=4;" parent="-6zr8g8bWNjjjz_1pWaL-75" vertex="1">
          <mxGeometry x="1" width="20" height="20" relative="1" as="geometry">
            <mxPoint x="-27" y="7" as="offset" />
          </mxGeometry>
        </mxCell>
        <mxCell id="-6zr8g8bWNjjjz_1pWaL-77" style="edgeStyle=none;rounded=0;orthogonalLoop=1;jettySize=auto;html=1;exitX=0.5;exitY=0;exitDx=0;exitDy=0;entryX=0.5;entryY=1;entryDx=0;entryDy=0;startArrow=classic;startFill=1;" parent="1" source="-6zr8g8bWNjjjz_1pWaL-79" target="-6zr8g8bWNjjjz_1pWaL-75" edge="1">
          <mxGeometry relative="1" as="geometry" />
        </mxCell>
        <mxCell id="-6zr8g8bWNjjjz_1pWaL-78" style="edgeStyle=none;rounded=0;orthogonalLoop=1;jettySize=auto;html=1;exitX=0.5;exitY=0;exitDx=0;exitDy=0;entryX=0.5;entryY=1;entryDx=0;entryDy=0;startArrow=classic;startFill=1;" parent="1" source="-6zr8g8bWNjjjz_1pWaL-79" target="-6zr8g8bWNjjjz_1pWaL-72" edge="1">
          <mxGeometry relative="1" as="geometry" />
        </mxCell>
        <mxCell id="-6zr8g8bWNjjjz_1pWaL-79" value="«Javascript»&lt;br&gt;&lt;b&gt;ClientHandler&lt;/b&gt;" style="html=1;dropTarget=0;" parent="1" vertex="1">
          <mxGeometry x="532.5" y="390" width="115" height="70" as="geometry" />
        </mxCell>
        <mxCell id="-6zr8g8bWNjjjz_1pWaL-80" value="" style="shape=module;jettyWidth=8;jettyHeight=4;" parent="-6zr8g8bWNjjjz_1pWaL-79" vertex="1">
          <mxGeometry x="1" width="20" height="20" relative="1" as="geometry">
            <mxPoint x="-27" y="7" as="offset" />
          </mxGeometry>
        </mxCell>
        <mxCell id="-6zr8g8bWNjjjz_1pWaL-96" style="edgeStyle=none;rounded=0;orthogonalLoop=1;jettySize=auto;html=1;exitX=1;exitY=0.5;exitDx=0;exitDy=0;entryX=0;entryY=0.5;entryDx=0;entryDy=0;dashed=1;startArrow=classic;startFill=1;" parent="1" source="-6zr8g8bWNjjjz_1pWaL-92" target="-6zr8g8bWNjjjz_1pWaL-27" edge="1">
          <mxGeometry relative="1" as="geometry" />
        </mxCell>
        <mxCell id="-6zr8g8bWNjjjz_1pWaL-92" value="«Java»&lt;br&gt;&lt;b&gt;CroquetModel&lt;/b&gt;" style="html=1;dropTarget=0;" parent="1" vertex="1">
          <mxGeometry x="70" y="902.5" width="120" height="75" as="geometry" />
        </mxCell>
        <mxCell id="-6zr8g8bWNjjjz_1pWaL-93" value="" style="shape=module;jettyWidth=8;jettyHeight=4;" parent="-6zr8g8bWNjjjz_1pWaL-92" vertex="1">
          <mxGeometry x="1" width="20" height="20" relative="1" as="geometry">
            <mxPoint x="-27" y="7" as="offset" />
          </mxGeometry>
        </mxCell>
        <mxCell id="-6zr8g8bWNjjjz_1pWaL-99" style="edgeStyle=none;rounded=0;orthogonalLoop=1;jettySize=auto;html=1;exitX=0.5;exitY=0;exitDx=0;exitDy=0;entryX=0.5;entryY=1;entryDx=0;entryDy=0;dashed=1;startArrow=classic;startFill=1;" parent="1" source="-6zr8g8bWNjjjz_1pWaL-97" target="-6zr8g8bWNjjjz_1pWaL-27" edge="1">
          <mxGeometry relative="1" as="geometry" />
        </mxCell>
        <mxCell id="-6zr8g8bWNjjjz_1pWaL-97" value="«Java»&lt;br&gt;&lt;b&gt;GenericView&lt;/b&gt;" style="html=1;dropTarget=0;" parent="1" vertex="1">
          <mxGeometry x="152.5" y="1025" width="120" height="75" as="geometry" />
        </mxCell>
        <mxCell id="-6zr8g8bWNjjjz_1pWaL-98" value="" style="shape=module;jettyWidth=8;jettyHeight=4;" parent="-6zr8g8bWNjjjz_1pWaL-97" vertex="1">
          <mxGeometry x="1" width="20" height="20" relative="1" as="geometry">
            <mxPoint x="-27" y="7" as="offset" />
          </mxGeometry>
        </mxCell>
        <mxCell id="-6zr8g8bWNjjjz_1pWaL-121" style="edgeStyle=none;rounded=0;orthogonalLoop=1;jettySize=auto;html=1;exitX=0.5;exitY=1;exitDx=0;exitDy=0;entryX=0.5;entryY=0;entryDx=0;entryDy=0;dashed=1;startArrow=classic;startFill=1;" parent="1" source="-6zr8g8bWNjjjz_1pWaL-116" target="-6zr8g8bWNjjjz_1pWaL-92" edge="1">
          <mxGeometry relative="1" as="geometry" />
        </mxCell>
        <mxCell id="-6zr8g8bWNjjjz_1pWaL-122" style="edgeStyle=none;rounded=0;orthogonalLoop=1;jettySize=auto;html=1;exitX=0.5;exitY=0;exitDx=0;exitDy=0;entryX=0.5;entryY=1;entryDx=0;entryDy=0;dashed=1;startArrow=classic;startFill=1;" parent="1" source="-6zr8g8bWNjjjz_1pWaL-116" target="-6zr8g8bWNjjjz_1pWaL-3" edge="1">
          <mxGeometry relative="1" as="geometry" />
        </mxCell>
        <mxCell id="-6zr8g8bWNjjjz_1pWaL-116" value="«Java»&lt;br&gt;&lt;b&gt;ModelClient&lt;/b&gt;" style="html=1;dropTarget=0;" parent="1" vertex="1">
          <mxGeometry x="70" y="770" width="120" height="75" as="geometry" />
        </mxCell>
        <mxCell id="-6zr8g8bWNjjjz_1pWaL-117" value="" style="shape=module;jettyWidth=8;jettyHeight=4;" parent="-6zr8g8bWNjjjz_1pWaL-116" vertex="1">
          <mxGeometry x="1" width="20" height="20" relative="1" as="geometry">
            <mxPoint x="-27" y="7" as="offset" />
          </mxGeometry>
        </mxCell>
        <mxCell id="-6zr8g8bWNjjjz_1pWaL-120" style="edgeStyle=none;rounded=0;orthogonalLoop=1;jettySize=auto;html=1;exitX=0.5;exitY=1;exitDx=0;exitDy=0;entryX=0.5;entryY=0;entryDx=0;entryDy=0;dashed=1;startArrow=classic;startFill=1;" parent="1" source="-6zr8g8bWNjjjz_1pWaL-118" target="-6zr8g8bWNjjjz_1pWaL-27" edge="1">
          <mxGeometry relative="1" as="geometry" />
        </mxCell>
        <mxCell id="-6zr8g8bWNjjjz_1pWaL-123" style="edgeStyle=none;rounded=0;orthogonalLoop=1;jettySize=auto;html=1;exitX=0.5;exitY=0;exitDx=0;exitDy=0;dashed=1;startArrow=classic;startFill=1;entryX=0.5;entryY=1;entryDx=0;entryDy=0;" parent="1" source="-6zr8g8bWNjjjz_1pWaL-118" target="-6zr8g8bWNjjjz_1pWaL-3" edge="1">
          <mxGeometry relative="1" as="geometry">
            <mxPoint x="210" y="700" as="targetPoint" />
          </mxGeometry>
        </mxCell>
        <mxCell id="-6zr8g8bWNjjjz_1pWaL-118" value="«Java»&lt;br&gt;&lt;b&gt;ControllerClient&lt;/b&gt;" style="html=1;dropTarget=0;" parent="1" vertex="1">
          <mxGeometry x="230" y="770" width="120" height="75" as="geometry" />
        </mxCell>
        <mxCell id="-6zr8g8bWNjjjz_1pWaL-119" value="" style="shape=module;jettyWidth=8;jettyHeight=4;" parent="-6zr8g8bWNjjjz_1pWaL-118" vertex="1">
          <mxGeometry x="1" width="20" height="20" relative="1" as="geometry">
            <mxPoint x="-27" y="7" as="offset" />
          </mxGeometry>
        </mxCell>
        <mxCell id="-6zr8g8bWNjjjz_1pWaL-124" value="&lt;b style=&quot;text-align: center;&quot;&gt;Client&lt;/b&gt;" style="verticalAlign=top;align=left;spacingTop=8;spacingLeft=2;spacingRight=12;shape=cube;size=10;direction=south;fontStyle=4;html=1;" parent="1" vertex="1">
          <mxGeometry x="435" y="580" width="310" height="540" as="geometry" />
        </mxCell>
        <mxCell id="-6zr8g8bWNjjjz_1pWaL-143" style="edgeStyle=none;rounded=0;orthogonalLoop=1;jettySize=auto;html=1;exitX=0.5;exitY=0;exitDx=0;exitDy=0;dashed=1;startArrow=classic;startFill=1;" parent="1" source="-6zr8g8bWNjjjz_1pWaL-125" target="-6zr8g8bWNjjjz_1pWaL-79" edge="1">
          <mxGeometry relative="1" as="geometry" />
        </mxCell>
        <mxCell id="-6zr8g8bWNjjjz_1pWaL-125" value="«Java»&lt;br&gt;&lt;b&gt;CroquetAdapterClient&lt;/b&gt;" style="html=1;dropTarget=0;" parent="1" vertex="1">
          <mxGeometry x="505" y="625" width="170" height="75" as="geometry" />
        </mxCell>
        <mxCell id="-6zr8g8bWNjjjz_1pWaL-126" value="" style="shape=module;jettyWidth=8;jettyHeight=4;" parent="-6zr8g8bWNjjjz_1pWaL-125" vertex="1">
          <mxGeometry x="1" width="20" height="20" relative="1" as="geometry">
            <mxPoint x="-27" y="7" as="offset" />
          </mxGeometry>
        </mxCell>
        <mxCell id="-6zr8g8bWNjjjz_1pWaL-127" value="«Java»&lt;br&gt;&lt;b&gt;CroquetController&lt;/b&gt;" style="html=1;dropTarget=0;" parent="1" vertex="1">
          <mxGeometry x="605" y="902.5" width="120" height="75" as="geometry" />
        </mxCell>
        <mxCell id="-6zr8g8bWNjjjz_1pWaL-128" value="" style="shape=module;jettyWidth=8;jettyHeight=4;" parent="-6zr8g8bWNjjjz_1pWaL-127" vertex="1">
          <mxGeometry x="1" width="20" height="20" relative="1" as="geometry">
            <mxPoint x="-27" y="7" as="offset" />
          </mxGeometry>
        </mxCell>
        <mxCell id="-6zr8g8bWNjjjz_1pWaL-129" style="edgeStyle=none;rounded=0;orthogonalLoop=1;jettySize=auto;html=1;exitX=1;exitY=0.5;exitDx=0;exitDy=0;entryX=0;entryY=0.5;entryDx=0;entryDy=0;dashed=1;startArrow=classic;startFill=1;" parent="1" source="-6zr8g8bWNjjjz_1pWaL-130" target="-6zr8g8bWNjjjz_1pWaL-127" edge="1">
          <mxGeometry relative="1" as="geometry" />
        </mxCell>
        <mxCell id="-6zr8g8bWNjjjz_1pWaL-130" value="«Java»&lt;br&gt;&lt;b&gt;CroquetModel&lt;/b&gt;" style="html=1;dropTarget=0;" parent="1" vertex="1">
          <mxGeometry x="445" y="902.5" width="120" height="75" as="geometry" />
        </mxCell>
        <mxCell id="-6zr8g8bWNjjjz_1pWaL-131" value="" style="shape=module;jettyWidth=8;jettyHeight=4;" parent="-6zr8g8bWNjjjz_1pWaL-130" vertex="1">
          <mxGeometry x="1" width="20" height="20" relative="1" as="geometry">
            <mxPoint x="-27" y="7" as="offset" />
          </mxGeometry>
        </mxCell>
        <mxCell id="-6zr8g8bWNjjjz_1pWaL-132" style="edgeStyle=none;rounded=0;orthogonalLoop=1;jettySize=auto;html=1;exitX=0.5;exitY=0;exitDx=0;exitDy=0;entryX=0.5;entryY=1;entryDx=0;entryDy=0;dashed=1;startArrow=classic;startFill=1;" parent="1" source="-6zr8g8bWNjjjz_1pWaL-133" target="-6zr8g8bWNjjjz_1pWaL-127" edge="1">
          <mxGeometry relative="1" as="geometry" />
        </mxCell>
        <mxCell id="-6zr8g8bWNjjjz_1pWaL-133" value="«Java»&lt;br&gt;&lt;b&gt;GenericView&lt;/b&gt;" style="html=1;dropTarget=0;" parent="1" vertex="1">
          <mxGeometry x="527.5" y="1025" width="120" height="75" as="geometry" />
        </mxCell>
        <mxCell id="-6zr8g8bWNjjjz_1pWaL-134" value="" style="shape=module;jettyWidth=8;jettyHeight=4;" parent="-6zr8g8bWNjjjz_1pWaL-133" vertex="1">
          <mxGeometry x="1" width="20" height="20" relative="1" as="geometry">
            <mxPoint x="-27" y="7" as="offset" />
          </mxGeometry>
        </mxCell>
        <mxCell id="-6zr8g8bWNjjjz_1pWaL-135" style="edgeStyle=none;rounded=0;orthogonalLoop=1;jettySize=auto;html=1;exitX=0.5;exitY=1;exitDx=0;exitDy=0;entryX=0.5;entryY=0;entryDx=0;entryDy=0;dashed=1;startArrow=classic;startFill=1;" parent="1" source="-6zr8g8bWNjjjz_1pWaL-137" target="-6zr8g8bWNjjjz_1pWaL-130" edge="1">
          <mxGeometry relative="1" as="geometry" />
        </mxCell>
        <mxCell id="-6zr8g8bWNjjjz_1pWaL-136" style="edgeStyle=none;rounded=0;orthogonalLoop=1;jettySize=auto;html=1;exitX=0.5;exitY=0;exitDx=0;exitDy=0;entryX=0.5;entryY=1;entryDx=0;entryDy=0;dashed=1;startArrow=classic;startFill=1;" parent="1" source="-6zr8g8bWNjjjz_1pWaL-137" target="-6zr8g8bWNjjjz_1pWaL-125" edge="1">
          <mxGeometry relative="1" as="geometry" />
        </mxCell>
        <mxCell id="-6zr8g8bWNjjjz_1pWaL-137" value="«Java»&lt;br&gt;&lt;b&gt;ModelClient&lt;/b&gt;" style="html=1;dropTarget=0;" parent="1" vertex="1">
          <mxGeometry x="445" y="770" width="120" height="75" as="geometry" />
        </mxCell>
        <mxCell id="-6zr8g8bWNjjjz_1pWaL-138" value="" style="shape=module;jettyWidth=8;jettyHeight=4;" parent="-6zr8g8bWNjjjz_1pWaL-137" vertex="1">
          <mxGeometry x="1" width="20" height="20" relative="1" as="geometry">
            <mxPoint x="-27" y="7" as="offset" />
          </mxGeometry>
        </mxCell>
        <mxCell id="-6zr8g8bWNjjjz_1pWaL-139" style="edgeStyle=none;rounded=0;orthogonalLoop=1;jettySize=auto;html=1;exitX=0.5;exitY=1;exitDx=0;exitDy=0;entryX=0.5;entryY=0;entryDx=0;entryDy=0;dashed=1;startArrow=classic;startFill=1;" parent="1" source="-6zr8g8bWNjjjz_1pWaL-141" target="-6zr8g8bWNjjjz_1pWaL-127" edge="1">
          <mxGeometry relative="1" as="geometry" />
        </mxCell>
        <mxCell id="-6zr8g8bWNjjjz_1pWaL-140" style="edgeStyle=none;rounded=0;orthogonalLoop=1;jettySize=auto;html=1;exitX=0.5;exitY=0;exitDx=0;exitDy=0;dashed=1;startArrow=classic;startFill=1;entryX=0.5;entryY=1;entryDx=0;entryDy=0;" parent="1" source="-6zr8g8bWNjjjz_1pWaL-141" target="-6zr8g8bWNjjjz_1pWaL-125" edge="1">
          <mxGeometry relative="1" as="geometry">
            <mxPoint x="585" y="700" as="targetPoint" />
          </mxGeometry>
        </mxCell>
        <mxCell id="-6zr8g8bWNjjjz_1pWaL-141" value="«Java»&lt;br&gt;&lt;b&gt;ControllerClient&lt;/b&gt;" style="html=1;dropTarget=0;" parent="1" vertex="1">
          <mxGeometry x="605" y="770" width="120" height="75" as="geometry" />
        </mxCell>
        <mxCell id="-6zr8g8bWNjjjz_1pWaL-142" value="" style="shape=module;jettyWidth=8;jettyHeight=4;" parent="-6zr8g8bWNjjjz_1pWaL-141" vertex="1">
          <mxGeometry x="1" width="20" height="20" relative="1" as="geometry">
            <mxPoint x="-27" y="7" as="offset" />
          </mxGeometry>
        </mxCell>
      </root>
    </mxGraphModel>
  </diagram>
  <diagram id="nJTIceu6AWVL25Hy4mVp" name="Adapter">
    <mxGraphModel dx="1422" dy="758" grid="1" gridSize="10" guides="1" tooltips="1" connect="1" arrows="1" fold="1" page="1" pageScale="1" pageWidth="827" pageHeight="1169" math="0" shadow="0">
      <root>
        <mxCell id="0" />
        <mxCell id="1" parent="0" />
        <mxCell id="HGR6nx9aTJimXrfs0sII-5" value="«Javascript»&lt;br&gt;&lt;b&gt;CroquetView&lt;/b&gt;" style="html=1;dropTarget=0;" parent="1" vertex="1">
          <mxGeometry x="199" y="850" width="115" height="70" as="geometry" />
        </mxCell>
        <mxCell id="HGR6nx9aTJimXrfs0sII-6" value="" style="shape=module;jettyWidth=8;jettyHeight=4;" parent="HGR6nx9aTJimXrfs0sII-5" vertex="1">
          <mxGeometry x="1" width="20" height="20" relative="1" as="geometry">
            <mxPoint x="-27" y="7" as="offset" />
          </mxGeometry>
        </mxCell>
        <mxCell id="HGR6nx9aTJimXrfs0sII-9" value="«Javascript»&lt;br&gt;&lt;b&gt;ClientHandler&lt;/b&gt;" style="html=1;dropTarget=0;" parent="1" vertex="1">
          <mxGeometry x="69" y="850" width="115" height="70" as="geometry" />
        </mxCell>
        <mxCell id="HGR6nx9aTJimXrfs0sII-10" value="" style="shape=module;jettyWidth=8;jettyHeight=4;" parent="HGR6nx9aTJimXrfs0sII-9" vertex="1">
          <mxGeometry x="1" width="20" height="20" relative="1" as="geometry">
            <mxPoint x="-27" y="7" as="offset" />
          </mxGeometry>
        </mxCell>
        <mxCell id="z4KHP9NfW3jnQwNjnZzB-6" style="edgeStyle=orthogonalEdgeStyle;rounded=0;orthogonalLoop=1;jettySize=auto;html=1;exitX=0.5;exitY=0;exitDx=0;exitDy=0;entryX=0.5;entryY=1;entryDx=0;entryDy=0;startArrow=none;startFill=0;endArrow=none;endFill=0;" parent="1" source="HGR6nx9aTJimXrfs0sII-11" target="z4KHP9NfW3jnQwNjnZzB-5" edge="1">
          <mxGeometry relative="1" as="geometry" />
        </mxCell>
        <mxCell id="z4KHP9NfW3jnQwNjnZzB-7" style="edgeStyle=orthogonalEdgeStyle;rounded=0;orthogonalLoop=1;jettySize=auto;html=1;exitX=0.5;exitY=0;exitDx=0;exitDy=0;entryX=0.559;entryY=0.989;entryDx=0;entryDy=0;entryPerimeter=0;startArrow=none;startFill=0;endArrow=none;endFill=0;" parent="1" source="HGR6nx9aTJimXrfs0sII-11" target="z4KHP9NfW3jnQwNjnZzB-1" edge="1">
          <mxGeometry relative="1" as="geometry" />
        </mxCell>
        <mxCell id="z4KHP9NfW3jnQwNjnZzB-8" style="edgeStyle=orthogonalEdgeStyle;rounded=0;orthogonalLoop=1;jettySize=auto;html=1;exitX=0.5;exitY=0;exitDx=0;exitDy=0;entryX=0.5;entryY=1;entryDx=0;entryDy=0;startArrow=diamond;startFill=1;endArrow=none;endFill=0;endSize=13;startSize=15;" parent="1" source="HGR6nx9aTJimXrfs0sII-11" target="z4KHP9NfW3jnQwNjnZzB-2" edge="1">
          <mxGeometry relative="1" as="geometry" />
        </mxCell>
        <mxCell id="z4KHP9NfW3jnQwNjnZzB-9" style="edgeStyle=orthogonalEdgeStyle;rounded=0;orthogonalLoop=1;jettySize=auto;html=1;exitX=0.5;exitY=0;exitDx=0;exitDy=0;entryX=0.5;entryY=1;entryDx=0;entryDy=0;startArrow=none;startFill=0;endArrow=none;endFill=0;" parent="1" source="HGR6nx9aTJimXrfs0sII-11" target="z4KHP9NfW3jnQwNjnZzB-3" edge="1">
          <mxGeometry relative="1" as="geometry" />
        </mxCell>
        <mxCell id="z4KHP9NfW3jnQwNjnZzB-10" style="edgeStyle=orthogonalEdgeStyle;rounded=0;orthogonalLoop=1;jettySize=auto;html=1;exitX=0.5;exitY=0;exitDx=0;exitDy=0;entryX=0.5;entryY=1;entryDx=0;entryDy=0;startArrow=none;startFill=0;endArrow=none;endFill=0;" parent="1" source="HGR6nx9aTJimXrfs0sII-11" target="z4KHP9NfW3jnQwNjnZzB-4" edge="1">
          <mxGeometry relative="1" as="geometry" />
        </mxCell>
        <mxCell id="HGR6nx9aTJimXrfs0sII-11" value="&lt;p style=&quot;margin:0px;margin-top:4px;text-align:center;&quot;&gt;&lt;i&gt;&amp;lt;&amp;lt;Interface&amp;gt;&amp;gt;&lt;/i&gt;&lt;br&gt;&lt;b&gt;DynamicModel&lt;/b&gt;&lt;/p&gt;&lt;hr size=&quot;1&quot;&gt;&lt;p style=&quot;margin:0px;margin-left:4px;&quot;&gt;&lt;br&gt;&lt;/p&gt;" style="verticalAlign=top;align=left;overflow=fill;fontSize=12;fontFamily=Helvetica;html=1;" parent="1" vertex="1">
          <mxGeometry x="454.5" y="490" width="190" height="100" as="geometry" />
        </mxCell>
        <mxCell id="HGR6nx9aTJimXrfs0sII-14" value="&lt;p style=&quot;margin:0px;margin-top:4px;text-align:center;&quot;&gt;&lt;i&gt;&amp;lt;&amp;lt;Interface&amp;gt;&amp;gt;&lt;/i&gt;&lt;br&gt;&lt;b&gt;DynamicView&lt;/b&gt;&lt;/p&gt;&lt;hr size=&quot;1&quot;&gt;&lt;p style=&quot;margin:0px;margin-left:4px;&quot;&gt;&lt;span style=&quot;background-color: initial;&quot;&gt;+ subscriptions: List&amp;lt;Subscriptions&amp;gt;&lt;/span&gt;&lt;br&gt;&lt;/p&gt;&lt;p style=&quot;margin:0px;margin-left:4px;&quot;&gt;+ futures: [&lt;/p&gt;&lt;p style=&quot;margin:0px;margin-left:4px;&quot;&gt;+ futureLoops: []&lt;/p&gt;&lt;hr size=&quot;1&quot;&gt;&lt;p style=&quot;margin:0px;margin-left:4px;&quot;&gt;&lt;br&gt;&lt;/p&gt;" style="verticalAlign=top;align=left;overflow=fill;fontSize=12;fontFamily=Helvetica;html=1;" parent="1" vertex="1">
          <mxGeometry x="20" y="630" width="206.5" height="200" as="geometry" />
        </mxCell>
        <mxCell id="HGR6nx9aTJimXrfs0sII-15" value="&lt;p style=&quot;margin:0px;margin-top:4px;text-align:center;&quot;&gt;&lt;i&gt;&amp;lt;&amp;lt;Interface&amp;gt;&amp;gt;&lt;/i&gt;&lt;br&gt;&lt;b&gt;Future&lt;/b&gt;&lt;/p&gt;&lt;hr size=&quot;1&quot;&gt;&lt;p style=&quot;margin:0px;margin-left:4px;&quot;&gt;&lt;span style=&quot;background-color: initial;&quot;&gt;+ id: String&lt;br&gt;&lt;/span&gt;&lt;/p&gt;&lt;p style=&quot;margin:0px;margin-left:4px;&quot;&gt;&lt;span style=&quot;background-color: initial;&quot;&gt;+ time: Int&lt;/span&gt;&lt;/p&gt;&lt;p style=&quot;margin:0px;margin-left:4px;&quot;&gt;&lt;span style=&quot;background-color: initial;&quot;&gt;+ handler: Callback&lt;/span&gt;&lt;/p&gt;&lt;hr size=&quot;1&quot;&gt;&lt;p style=&quot;margin:0px;margin-left:4px;&quot;&gt;&lt;br&gt;&lt;/p&gt;" style="verticalAlign=top;align=left;overflow=fill;fontSize=12;fontFamily=Helvetica;html=1;" parent="1" vertex="1">
          <mxGeometry x="1391" y="50" width="145" height="90" as="geometry" />
        </mxCell>
        <mxCell id="HGR6nx9aTJimXrfs0sII-16" value="&lt;p style=&quot;margin:0px;margin-top:4px;text-align:center;&quot;&gt;&lt;i&gt;&amp;lt;&amp;lt;Interface&amp;gt;&amp;gt;&lt;/i&gt;&lt;br&gt;&lt;b&gt;Subscription&lt;/b&gt;&lt;/p&gt;&lt;hr size=&quot;1&quot;&gt;&lt;p style=&quot;margin:0px;margin-left:4px;&quot;&gt;&lt;span style=&quot;background-color: initial;&quot;&gt;+ scope: String&lt;br&gt;&lt;/span&gt;&lt;/p&gt;&lt;p style=&quot;margin:0px;margin-left:4px;&quot;&gt;&lt;span style=&quot;background-color: initial;&quot;&gt;+ event: String&lt;br&gt;&lt;/span&gt;&lt;/p&gt;&lt;hr size=&quot;1&quot;&gt;&lt;p style=&quot;margin:0px;margin-left:4px;&quot;&gt;&lt;br&gt;&lt;/p&gt;" style="verticalAlign=top;align=left;overflow=fill;fontSize=12;fontFamily=Helvetica;html=1;" parent="1" vertex="1">
          <mxGeometry x="1216" y="50" width="145" height="80" as="geometry" />
        </mxCell>
        <mxCell id="HGR6nx9aTJimXrfs0sII-17" value="&lt;p style=&quot;margin:0px;margin-top:4px;text-align:center;&quot;&gt;&lt;i&gt;&amp;lt;&amp;lt;Interface&amp;gt;&amp;gt;&lt;/i&gt;&lt;br&gt;&lt;b&gt;FutureTick&lt;/b&gt;&lt;/p&gt;&lt;hr size=&quot;1&quot;&gt;&lt;p style=&quot;margin:0px;margin-left:4px;&quot;&gt;&lt;span style=&quot;background-color: initial;&quot;&gt;+ futureId: String&lt;br&gt;&lt;/span&gt;&lt;/p&gt;&lt;hr size=&quot;1&quot;&gt;&lt;p style=&quot;margin:0px;margin-left:4px;&quot;&gt;&lt;br&gt;&lt;/p&gt;" style="verticalAlign=top;align=left;overflow=fill;fontSize=12;fontFamily=Helvetica;html=1;" parent="1" vertex="1">
          <mxGeometry x="1566" y="65" width="110" height="60" as="geometry" />
        </mxCell>
        <mxCell id="HGR6nx9aTJimXrfs0sII-19" value="&lt;p style=&quot;margin:0px;margin-top:4px;text-align:center;&quot;&gt;&lt;i&gt;&amp;lt;&amp;lt;Interface&amp;gt;&amp;gt;&lt;/i&gt;&lt;br&gt;&lt;b&gt;Event&lt;/b&gt;&lt;/p&gt;&lt;hr size=&quot;1&quot;&gt;&lt;p style=&quot;margin:0px;margin-left:4px;&quot;&gt;&lt;span style=&quot;background-color: initial;&quot;&gt;+ scope: String&lt;br&gt;&lt;/span&gt;&lt;/p&gt;&lt;p style=&quot;margin:0px;margin-left:4px;&quot;&gt;&lt;span style=&quot;background-color: initial;&quot;&gt;+ event: String&lt;/span&gt;&lt;/p&gt;&lt;p style=&quot;margin:0px;margin-left:4px;&quot;&gt;&lt;span style=&quot;background-color: initial;&quot;&gt;+ data: Any&lt;/span&gt;&lt;/p&gt;&lt;hr size=&quot;1&quot;&gt;&lt;p style=&quot;margin:0px;margin-left:4px;&quot;&gt;&lt;br&gt;&lt;/p&gt;" style="verticalAlign=top;align=left;overflow=fill;fontSize=12;fontFamily=Helvetica;html=1;" parent="1" vertex="1">
          <mxGeometry x="1040" y="50" width="145" height="90" as="geometry" />
        </mxCell>
        <mxCell id="z4KHP9NfW3jnQwNjnZzB-1" value="&lt;p style=&quot;margin:0px;margin-top:4px;text-align:center;&quot;&gt;&lt;i&gt;&amp;lt;&amp;lt;Model&amp;gt;&amp;gt;&lt;/i&gt;&lt;br&gt;&lt;b&gt;DataManager&lt;/b&gt;&lt;/p&gt;&lt;hr size=&quot;1&quot;&gt;&lt;p style=&quot;margin:0px;margin-left:4px;&quot;&gt;&lt;br&gt;&lt;/p&gt;&lt;hr size=&quot;1&quot;&gt;&lt;p style=&quot;margin:0px;margin-left:4px;&quot;&gt;&lt;br&gt;&lt;/p&gt;" style="verticalAlign=top;align=left;overflow=fill;fontSize=12;fontFamily=Helvetica;html=1;" parent="1" vertex="1">
          <mxGeometry x="314" y="270" width="145" height="90" as="geometry" />
        </mxCell>
        <mxCell id="z4KHP9NfW3jnQwNjnZzB-2" value="&lt;p style=&quot;margin:0px;margin-top:4px;text-align:center;&quot;&gt;&lt;i&gt;&amp;lt;&amp;lt;Model&amp;gt;&amp;gt;&lt;/i&gt;&lt;br&gt;&lt;b&gt;SnapshotManager&lt;/b&gt;&lt;/p&gt;&lt;hr size=&quot;1&quot;&gt;&lt;p style=&quot;margin:0px;margin-left:4px;&quot;&gt;&lt;br&gt;&lt;/p&gt;&lt;hr size=&quot;1&quot;&gt;&lt;p style=&quot;margin:0px;margin-left:4px;&quot;&gt;&lt;br&gt;&lt;/p&gt;" style="verticalAlign=top;align=left;overflow=fill;fontSize=12;fontFamily=Helvetica;html=1;" parent="1" vertex="1">
          <mxGeometry x="477" y="270" width="145" height="90" as="geometry" />
        </mxCell>
        <mxCell id="z4KHP9NfW3jnQwNjnZzB-12" style="edgeStyle=orthogonalEdgeStyle;rounded=0;orthogonalLoop=1;jettySize=auto;html=1;exitX=0.5;exitY=0;exitDx=0;exitDy=0;entryX=0.5;entryY=1;entryDx=0;entryDy=0;startArrow=none;startFill=0;endArrow=none;endFill=0;startSize=15;endSize=13;" parent="1" source="z4KHP9NfW3jnQwNjnZzB-3" target="z4KHP9NfW3jnQwNjnZzB-11" edge="1">
          <mxGeometry relative="1" as="geometry" />
        </mxCell>
        <mxCell id="z4KHP9NfW3jnQwNjnZzB-3" value="&lt;p style=&quot;margin:0px;margin-top:4px;text-align:center;&quot;&gt;&lt;i&gt;&amp;lt;&amp;lt;Model&amp;gt;&amp;gt;&lt;/i&gt;&lt;br&gt;&lt;b&gt;FutureManager&lt;/b&gt;&lt;/p&gt;&lt;hr size=&quot;1&quot;&gt;&lt;p style=&quot;margin:0px;margin-left:4px;&quot;&gt;&lt;br&gt;&lt;/p&gt;&lt;hr size=&quot;1&quot;&gt;&lt;p style=&quot;margin:0px;margin-left:4px;&quot;&gt;&lt;br&gt;&lt;/p&gt;" style="verticalAlign=top;align=left;overflow=fill;fontSize=12;fontFamily=Helvetica;html=1;" parent="1" vertex="1">
          <mxGeometry x="640" y="270" width="145" height="90" as="geometry" />
        </mxCell>
        <mxCell id="z4KHP9NfW3jnQwNjnZzB-13" style="edgeStyle=orthogonalEdgeStyle;rounded=0;orthogonalLoop=1;jettySize=auto;html=1;exitX=0.5;exitY=0;exitDx=0;exitDy=0;startArrow=none;startFill=0;endArrow=none;endFill=0;startSize=15;endSize=13;" parent="1" source="z4KHP9NfW3jnQwNjnZzB-4" target="z4KHP9NfW3jnQwNjnZzB-11" edge="1">
          <mxGeometry relative="1" as="geometry" />
        </mxCell>
        <mxCell id="z4KHP9NfW3jnQwNjnZzB-4" value="&lt;p style=&quot;margin:0px;margin-top:4px;text-align:center;&quot;&gt;&lt;i&gt;&amp;lt;&amp;lt;Model&amp;gt;&amp;gt;&lt;/i&gt;&lt;br&gt;&lt;b&gt;SubscriptionManager&lt;/b&gt;&lt;/p&gt;&lt;hr size=&quot;1&quot;&gt;&lt;p style=&quot;margin:0px;margin-left:4px;&quot;&gt;&lt;br&gt;&lt;/p&gt;&lt;hr size=&quot;1&quot;&gt;&lt;p style=&quot;margin:0px;margin-left:4px;&quot;&gt;&lt;br&gt;&lt;/p&gt;" style="verticalAlign=top;align=left;overflow=fill;fontSize=12;fontFamily=Helvetica;html=1;" parent="1" vertex="1">
          <mxGeometry x="800" y="270" width="145" height="90" as="geometry" />
        </mxCell>
        <mxCell id="z4KHP9NfW3jnQwNjnZzB-5" value="&lt;p style=&quot;margin:0px;margin-top:4px;text-align:center;&quot;&gt;&lt;i&gt;&amp;lt;&amp;lt;Model&amp;gt;&amp;gt;&lt;/i&gt;&lt;br&gt;&lt;b&gt;Loading Manager&lt;/b&gt;&lt;/p&gt;&lt;hr size=&quot;1&quot;&gt;&lt;p style=&quot;margin:0px;margin-left:4px;&quot;&gt;&lt;br&gt;&lt;/p&gt;&lt;hr size=&quot;1&quot;&gt;&lt;p style=&quot;margin:0px;margin-left:4px;&quot;&gt;&lt;br&gt;&lt;/p&gt;" style="verticalAlign=top;align=left;overflow=fill;fontSize=12;fontFamily=Helvetica;html=1;" parent="1" vertex="1">
          <mxGeometry x="150" y="270" width="145" height="90" as="geometry" />
        </mxCell>
        <mxCell id="z4KHP9NfW3jnQwNjnZzB-11" value="&lt;p style=&quot;margin:0px;margin-top:4px;text-align:center;&quot;&gt;&lt;i&gt;&amp;lt;&amp;lt;Model&amp;gt;&amp;gt;&lt;/i&gt;&lt;br&gt;&lt;b&gt;RunTimeManager&lt;/b&gt;&lt;/p&gt;&lt;hr size=&quot;1&quot;&gt;&lt;p style=&quot;margin:0px;margin-left:4px;&quot;&gt;&lt;br&gt;&lt;/p&gt;&lt;hr size=&quot;1&quot;&gt;&lt;p style=&quot;margin:0px;margin-left:4px;&quot;&gt;&lt;br&gt;&lt;/p&gt;" style="verticalAlign=top;align=left;overflow=fill;fontSize=12;fontFamily=Helvetica;html=1;" parent="1" vertex="1">
          <mxGeometry x="720" y="120" width="145" height="90" as="geometry" />
        </mxCell>
      </root>
    </mxGraphModel>
  </diagram>
  <diagram id="3DPHAATxGLd3HZroyu5x" name="Proxy">
    <mxGraphModel dx="981" dy="523" grid="1" gridSize="10" guides="1" tooltips="1" connect="1" arrows="1" fold="1" page="1" pageScale="1" pageWidth="827" pageHeight="1169" math="0" shadow="0">
      <root>
        <mxCell id="0" />
        <mxCell id="1" parent="0" />
        <mxCell id="puDf70v0f_aZxbCuji06-1" value="Client" style="shape=module;align=left;spacingLeft=20;align=center;verticalAlign=top;" parent="1" vertex="1">
          <mxGeometry x="97" y="960" width="181" height="190" as="geometry" />
        </mxCell>
        <mxCell id="puDf70v0f_aZxbCuji06-2" value="&lt;p style=&quot;margin:0px;margin-top:4px;text-align:center;&quot;&gt;&lt;i&gt;&amp;lt;&amp;lt;&lt;/i&gt;&lt;i&gt;Language&lt;/i&gt;&lt;i&gt;&amp;gt;&amp;gt;&lt;/i&gt;&lt;br&gt;&lt;b&gt;CroquetClient&lt;/b&gt;&lt;/p&gt;&lt;hr size=&quot;1&quot;&gt;&lt;p style=&quot;margin:0px;margin-left:4px;&quot;&gt;&lt;br&gt;&lt;/p&gt;&lt;hr size=&quot;1&quot;&gt;&lt;p style=&quot;margin:0px;margin-left:4px;&quot;&gt;&lt;br&gt;&lt;/p&gt;" style="verticalAlign=top;align=left;overflow=fill;fontSize=12;fontFamily=Helvetica;html=1;" parent="1" vertex="1">
          <mxGeometry x="127" y="1010" width="125" height="40" as="geometry" />
        </mxCell>
        <mxCell id="puDf70v0f_aZxbCuji06-3" value="use" style="edgeStyle=none;rounded=0;orthogonalLoop=1;jettySize=auto;html=1;exitX=0.5;exitY=0;exitDx=0;exitDy=0;entryX=0.5;entryY=1;entryDx=0;entryDy=0;startArrow=none;startFill=0;endArrow=none;endFill=0;startSize=15;endSize=13;" parent="1" source="puDf70v0f_aZxbCuji06-4" target="puDf70v0f_aZxbCuji06-2" edge="1">
          <mxGeometry relative="1" as="geometry" />
        </mxCell>
        <mxCell id="puDf70v0f_aZxbCuji06-4" value="&lt;p style=&quot;margin:0px;margin-top:4px;text-align:center;&quot;&gt;&lt;i&gt;&amp;lt;&amp;lt;&lt;/i&gt;&lt;i&gt;Language&lt;/i&gt;&lt;i&gt;&amp;gt;&amp;gt;&lt;/i&gt;&lt;br&gt;&lt;b&gt;ViewModel&lt;/b&gt;&lt;/p&gt;&lt;hr size=&quot;1&quot;&gt;&lt;p style=&quot;margin:0px;margin-left:4px;&quot;&gt;&lt;br&gt;&lt;/p&gt;&lt;hr size=&quot;1&quot;&gt;&lt;p style=&quot;margin:0px;margin-left:4px;&quot;&gt;&lt;br&gt;&lt;/p&gt;" style="verticalAlign=top;align=left;overflow=fill;fontSize=12;fontFamily=Helvetica;html=1;" parent="1" vertex="1">
          <mxGeometry x="127" y="1090" width="125" height="40" as="geometry" />
        </mxCell>
        <mxCell id="puDf70v0f_aZxbCuji06-11" style="edgeStyle=none;rounded=0;orthogonalLoop=1;jettySize=auto;html=1;exitX=0.5;exitY=1;exitDx=0;exitDy=0;entryX=0.5;entryY=0;entryDx=0;entryDy=0;dashed=1;startArrow=none;startFill=0;endArrow=none;endFill=0;startSize=15;endSize=13;" parent="1" source="puDf70v0f_aZxbCuji06-5" target="puDf70v0f_aZxbCuji06-1" edge="1">
          <mxGeometry relative="1" as="geometry" />
        </mxCell>
        <mxCell id="puDf70v0f_aZxbCuji06-5" value="Model" style="shape=module;align=left;spacingLeft=20;align=center;verticalAlign=top;dashed=1;" parent="1" vertex="1">
          <mxGeometry x="363.5" y="850" width="100" height="50" as="geometry" />
        </mxCell>
        <mxCell id="puDf70v0f_aZxbCuji06-16" style="edgeStyle=none;rounded=0;orthogonalLoop=1;jettySize=auto;html=1;exitX=0.5;exitY=0;exitDx=0;exitDy=0;entryX=0.5;entryY=1;entryDx=0;entryDy=0;dashed=1;startArrow=none;startFill=0;endArrow=none;endFill=0;startSize=15;endSize=13;" parent="1" source="puDf70v0f_aZxbCuji06-12" target="puDf70v0f_aZxbCuji06-5" edge="1">
          <mxGeometry relative="1" as="geometry" />
        </mxCell>
        <mxCell id="puDf70v0f_aZxbCuji06-12" value="Client" style="shape=module;align=left;spacingLeft=20;align=center;verticalAlign=top;" parent="1" vertex="1">
          <mxGeometry x="323" y="960" width="181" height="190" as="geometry" />
        </mxCell>
        <mxCell id="puDf70v0f_aZxbCuji06-13" value="&lt;p style=&quot;margin:0px;margin-top:4px;text-align:center;&quot;&gt;&lt;i&gt;&amp;lt;&amp;lt;&lt;/i&gt;&lt;i&gt;Language&lt;/i&gt;&lt;i&gt;&amp;gt;&amp;gt;&lt;/i&gt;&lt;br&gt;&lt;b&gt;CroquetClient&lt;/b&gt;&lt;/p&gt;&lt;hr size=&quot;1&quot;&gt;&lt;p style=&quot;margin:0px;margin-left:4px;&quot;&gt;&lt;br&gt;&lt;/p&gt;&lt;hr size=&quot;1&quot;&gt;&lt;p style=&quot;margin:0px;margin-left:4px;&quot;&gt;&lt;br&gt;&lt;/p&gt;" style="verticalAlign=top;align=left;overflow=fill;fontSize=12;fontFamily=Helvetica;html=1;" parent="1" vertex="1">
          <mxGeometry x="359.5" y="1010" width="125" height="40" as="geometry" />
        </mxCell>
        <mxCell id="puDf70v0f_aZxbCuji06-14" value="use" style="edgeStyle=none;rounded=0;orthogonalLoop=1;jettySize=auto;html=1;exitX=0.5;exitY=0;exitDx=0;exitDy=0;entryX=0.5;entryY=1;entryDx=0;entryDy=0;startArrow=none;startFill=0;endArrow=none;endFill=0;startSize=15;endSize=13;" parent="1" source="puDf70v0f_aZxbCuji06-15" target="puDf70v0f_aZxbCuji06-13" edge="1">
          <mxGeometry relative="1" as="geometry" />
        </mxCell>
        <mxCell id="puDf70v0f_aZxbCuji06-15" value="&lt;p style=&quot;margin:0px;margin-top:4px;text-align:center;&quot;&gt;&lt;i&gt;&amp;lt;&amp;lt;&lt;/i&gt;&lt;i&gt;Language&lt;/i&gt;&lt;i&gt;&amp;gt;&amp;gt;&lt;/i&gt;&lt;br&gt;&lt;b&gt;ViewModel&lt;/b&gt;&lt;/p&gt;&lt;hr size=&quot;1&quot;&gt;&lt;p style=&quot;margin:0px;margin-left:4px;&quot;&gt;&lt;br&gt;&lt;/p&gt;&lt;hr size=&quot;1&quot;&gt;&lt;p style=&quot;margin:0px;margin-left:4px;&quot;&gt;&lt;br&gt;&lt;/p&gt;" style="verticalAlign=top;align=left;overflow=fill;fontSize=12;fontFamily=Helvetica;html=1;" parent="1" vertex="1">
          <mxGeometry x="359.5" y="1090" width="125" height="40" as="geometry" />
        </mxCell>
        <mxCell id="puDf70v0f_aZxbCuji06-21" style="edgeStyle=none;rounded=0;orthogonalLoop=1;jettySize=auto;html=1;exitX=0.5;exitY=0;exitDx=0;exitDy=0;entryX=0.5;entryY=1;entryDx=0;entryDy=0;dashed=1;startArrow=none;startFill=0;endArrow=none;endFill=0;startSize=15;endSize=13;" parent="1" source="puDf70v0f_aZxbCuji06-17" target="puDf70v0f_aZxbCuji06-5" edge="1">
          <mxGeometry relative="1" as="geometry" />
        </mxCell>
        <mxCell id="puDf70v0f_aZxbCuji06-17" value="Client" style="shape=module;align=left;spacingLeft=20;align=center;verticalAlign=top;" parent="1" vertex="1">
          <mxGeometry x="550" y="960" width="181" height="190" as="geometry" />
        </mxCell>
        <mxCell id="puDf70v0f_aZxbCuji06-18" value="&lt;p style=&quot;margin:0px;margin-top:4px;text-align:center;&quot;&gt;&lt;i&gt;&amp;lt;&amp;lt;&lt;/i&gt;&lt;i&gt;Language&lt;/i&gt;&lt;i&gt;&amp;gt;&amp;gt;&lt;/i&gt;&lt;br&gt;&lt;b&gt;CroquetClient&lt;/b&gt;&lt;/p&gt;&lt;hr size=&quot;1&quot;&gt;&lt;p style=&quot;margin:0px;margin-left:4px;&quot;&gt;&lt;br&gt;&lt;/p&gt;&lt;hr size=&quot;1&quot;&gt;&lt;p style=&quot;margin:0px;margin-left:4px;&quot;&gt;&lt;br&gt;&lt;/p&gt;" style="verticalAlign=top;align=left;overflow=fill;fontSize=12;fontFamily=Helvetica;html=1;" parent="1" vertex="1">
          <mxGeometry x="578" y="1010" width="125" height="40" as="geometry" />
        </mxCell>
        <mxCell id="puDf70v0f_aZxbCuji06-19" value="use" style="edgeStyle=none;rounded=0;orthogonalLoop=1;jettySize=auto;html=1;exitX=0.5;exitY=0;exitDx=0;exitDy=0;entryX=0.5;entryY=1;entryDx=0;entryDy=0;startArrow=none;startFill=0;endArrow=none;endFill=0;startSize=15;endSize=13;" parent="1" source="puDf70v0f_aZxbCuji06-20" target="puDf70v0f_aZxbCuji06-18" edge="1">
          <mxGeometry relative="1" as="geometry" />
        </mxCell>
        <mxCell id="puDf70v0f_aZxbCuji06-20" value="&lt;p style=&quot;margin:0px;margin-top:4px;text-align:center;&quot;&gt;&lt;i&gt;&amp;lt;&amp;lt;&lt;/i&gt;&lt;i&gt;Language&lt;/i&gt;&lt;i&gt;&amp;gt;&amp;gt;&lt;/i&gt;&lt;br&gt;&lt;b&gt;ViewModel&lt;/b&gt;&lt;/p&gt;&lt;hr size=&quot;1&quot;&gt;&lt;p style=&quot;margin:0px;margin-left:4px;&quot;&gt;&lt;br&gt;&lt;/p&gt;&lt;hr size=&quot;1&quot;&gt;&lt;p style=&quot;margin:0px;margin-left:4px;&quot;&gt;&lt;br&gt;&lt;/p&gt;" style="verticalAlign=top;align=left;overflow=fill;fontSize=12;fontFamily=Helvetica;html=1;" parent="1" vertex="1">
          <mxGeometry x="578" y="1090" width="125" height="40" as="geometry" />
        </mxCell>
        <mxCell id="puDf70v0f_aZxbCuji06-22" value="How it works" style="text;html=1;align=center;verticalAlign=middle;resizable=0;points=[];autosize=1;strokeColor=none;fillColor=none;fontSize=32;fontStyle=1" parent="1" vertex="1">
          <mxGeometry x="304" y="30" width="220" height="50" as="geometry" />
        </mxCell>
        <mxCell id="puDf70v0f_aZxbCuji06-24" value="How it looks like" style="text;html=1;align=center;verticalAlign=middle;resizable=0;points=[];autosize=1;strokeColor=none;fillColor=none;fontSize=32;fontStyle=1" parent="1" vertex="1">
          <mxGeometry x="279" y="780" width="270" height="50" as="geometry" />
        </mxCell>
        <mxCell id="F6NlYaJqoR_ZFJgJRjci-1" value="Client" style="shape=module;align=left;spacingLeft=20;align=center;verticalAlign=top;" vertex="1" parent="1">
          <mxGeometry x="548" y="530" width="181" height="190" as="geometry" />
        </mxCell>
        <mxCell id="F6NlYaJqoR_ZFJgJRjci-2" value="Client" style="shape=module;align=left;spacingLeft=20;align=center;verticalAlign=top;" vertex="1" parent="1">
          <mxGeometry x="324" y="530" width="181" height="190" as="geometry" />
        </mxCell>
        <mxCell id="F6NlYaJqoR_ZFJgJRjci-3" value="Client" style="shape=module;align=left;spacingLeft=20;align=center;verticalAlign=top;" vertex="1" parent="1">
          <mxGeometry x="98" y="530" width="181" height="190" as="geometry" />
        </mxCell>
        <mxCell id="F6NlYaJqoR_ZFJgJRjci-4" value="Proxy Javascript" style="shape=module;align=left;spacingLeft=20;align=center;verticalAlign=top;" vertex="1" parent="1">
          <mxGeometry x="99" y="110" width="630" height="380" as="geometry" />
        </mxCell>
        <mxCell id="F6NlYaJqoR_ZFJgJRjci-5" value="create" style="edgeStyle=orthogonalEdgeStyle;rounded=0;orthogonalLoop=1;jettySize=auto;html=1;exitX=0.5;exitY=0;exitDx=0;exitDy=0;entryX=0.5;entryY=1;entryDx=0;entryDy=0;startArrow=none;startFill=0;endArrow=none;endFill=0;startSize=15;endSize=13;" edge="1" parent="1" source="F6NlYaJqoR_ZFJgJRjci-7" target="F6NlYaJqoR_ZFJgJRjci-10">
          <mxGeometry relative="1" as="geometry" />
        </mxCell>
        <mxCell id="F6NlYaJqoR_ZFJgJRjci-6" value="create" style="rounded=0;orthogonalLoop=1;jettySize=auto;html=1;exitX=0.5;exitY=0;exitDx=0;exitDy=0;entryX=0.5;entryY=1;entryDx=0;entryDy=0;startArrow=none;startFill=0;endArrow=none;endFill=0;startSize=15;endSize=13;" edge="1" parent="1" source="F6NlYaJqoR_ZFJgJRjci-7" target="F6NlYaJqoR_ZFJgJRjci-12">
          <mxGeometry relative="1" as="geometry" />
        </mxCell>
        <mxCell id="F6NlYaJqoR_ZFJgJRjci-7" value="&lt;p style=&quot;margin:0px;margin-top:4px;text-align:center;&quot;&gt;&lt;i&gt;&amp;lt;&amp;lt;&lt;/i&gt;&lt;i&gt;Javascript&lt;/i&gt;&lt;i&gt;&amp;gt;&amp;gt;&lt;/i&gt;&lt;br&gt;&lt;b&gt;ProxyServer&lt;/b&gt;&lt;/p&gt;&lt;hr size=&quot;1&quot;&gt;&lt;p style=&quot;margin:0px;margin-left:4px;&quot;&gt;&lt;br&gt;&lt;/p&gt;&lt;hr size=&quot;1&quot;&gt;&lt;p style=&quot;margin:0px;margin-left:4px;&quot;&gt;&lt;br&gt;&lt;/p&gt;" style="verticalAlign=top;align=left;overflow=fill;fontSize=12;fontFamily=Helvetica;html=1;" vertex="1" parent="1">
          <mxGeometry x="128.5" y="410" width="120" height="60" as="geometry" />
        </mxCell>
        <mxCell id="F6NlYaJqoR_ZFJgJRjci-8" value="extends" style="edgeStyle=orthogonalEdgeStyle;rounded=0;orthogonalLoop=1;jettySize=auto;html=1;exitX=0.5;exitY=0;exitDx=0;exitDy=0;entryX=0.5;entryY=1;entryDx=0;entryDy=0;startArrow=none;startFill=0;endArrow=none;endFill=0;startSize=15;endSize=13;" edge="1" parent="1" source="F6NlYaJqoR_ZFJgJRjci-10" target="F6NlYaJqoR_ZFJgJRjci-11">
          <mxGeometry relative="1" as="geometry" />
        </mxCell>
        <mxCell id="F6NlYaJqoR_ZFJgJRjci-9" value="" style="edgeStyle=none;rounded=0;orthogonalLoop=1;jettySize=auto;html=1;exitX=1;exitY=0.5;exitDx=0;exitDy=0;entryX=0;entryY=0.5;entryDx=0;entryDy=0;startArrow=none;startFill=0;endArrow=none;endFill=0;startSize=15;endSize=13;" edge="1" parent="1" source="F6NlYaJqoR_ZFJgJRjci-10" target="F6NlYaJqoR_ZFJgJRjci-12">
          <mxGeometry relative="1" as="geometry" />
        </mxCell>
        <mxCell id="F6NlYaJqoR_ZFJgJRjci-10" value="&lt;p style=&quot;margin:0px;margin-top:4px;text-align:center;&quot;&gt;&lt;i&gt;&amp;lt;&amp;lt;&lt;/i&gt;&lt;i&gt;Javascript&lt;/i&gt;&lt;i&gt;&amp;gt;&amp;gt;&lt;/i&gt;&lt;br&gt;&lt;b&gt;AppModel&lt;/b&gt;&lt;/p&gt;&lt;hr size=&quot;1&quot;&gt;&lt;p style=&quot;margin:0px;margin-left:4px;&quot;&gt;&lt;br&gt;&lt;/p&gt;&lt;hr size=&quot;1&quot;&gt;&lt;p style=&quot;margin:0px;margin-left:4px;&quot;&gt;&lt;br&gt;&lt;/p&gt;" style="verticalAlign=top;align=left;overflow=fill;fontSize=12;fontFamily=Helvetica;html=1;" vertex="1" parent="1">
          <mxGeometry x="124" y="280" width="130" height="60" as="geometry" />
        </mxCell>
        <mxCell id="F6NlYaJqoR_ZFJgJRjci-11" value="&lt;p style=&quot;margin:0px;margin-top:4px;text-align:center;&quot;&gt;&lt;i&gt;&amp;lt;&amp;lt;&lt;/i&gt;&lt;i&gt;Javascript&lt;/i&gt;&lt;i&gt;&amp;gt;&amp;gt;&lt;/i&gt;&lt;br&gt;&lt;b&gt;Model&lt;/b&gt;&lt;/p&gt;&lt;hr size=&quot;1&quot;&gt;&lt;p style=&quot;margin:0px;margin-left:4px;&quot;&gt;&lt;br&gt;&lt;/p&gt;&lt;hr size=&quot;1&quot;&gt;&lt;p style=&quot;margin:0px;margin-left:4px;&quot;&gt;&lt;br&gt;&lt;/p&gt;" style="verticalAlign=top;align=left;overflow=fill;fontSize=12;fontFamily=Helvetica;html=1;" vertex="1" parent="1">
          <mxGeometry x="134.5" y="170" width="110" height="40" as="geometry" />
        </mxCell>
        <mxCell id="F6NlYaJqoR_ZFJgJRjci-12" value="&lt;p style=&quot;margin:0px;margin-top:4px;text-align:center;&quot;&gt;&lt;i&gt;&amp;lt;&amp;lt;Javascript&amp;gt;&amp;gt;&lt;/i&gt;&lt;br&gt;&lt;b&gt;ProxyView&lt;/b&gt;&lt;/p&gt;&lt;hr size=&quot;1&quot;&gt;&lt;p style=&quot;margin:0px;margin-left:4px;&quot;&gt;+ sockets: []&lt;/p&gt;&lt;p style=&quot;margin:0px;margin-left:4px;&quot;&gt;+ subscriptions: Map&amp;lt;Topic, Socket&amp;gt;&lt;/p&gt;&lt;hr size=&quot;1&quot;&gt;&lt;p style=&quot;margin:0px;margin-left:4px;&quot;&gt;&lt;br&gt;&lt;/p&gt;" style="verticalAlign=top;align=left;overflow=fill;fontSize=12;fontFamily=Helvetica;html=1;" vertex="1" parent="1">
          <mxGeometry x="316.5" y="265" width="210" height="90" as="geometry" />
        </mxCell>
        <mxCell id="F6NlYaJqoR_ZFJgJRjci-13" value="communicate" style="edgeStyle=none;rounded=0;orthogonalLoop=1;jettySize=auto;html=1;exitX=0.5;exitY=0;exitDx=0;exitDy=0;entryX=0.5;entryY=1;entryDx=0;entryDy=0;startArrow=none;startFill=0;endArrow=none;endFill=0;startSize=15;endSize=13;" edge="1" parent="1" source="F6NlYaJqoR_ZFJgJRjci-14" target="F6NlYaJqoR_ZFJgJRjci-12">
          <mxGeometry relative="1" as="geometry" />
        </mxCell>
        <mxCell id="F6NlYaJqoR_ZFJgJRjci-14" value="&lt;p style=&quot;margin:0px;margin-top:4px;text-align:center;&quot;&gt;&lt;i&gt;&amp;lt;&amp;lt;Language&amp;gt;&amp;gt;&lt;/i&gt;&lt;br&gt;&lt;b&gt;CroquetClient&lt;/b&gt;&lt;/p&gt;&lt;hr size=&quot;1&quot;&gt;&lt;p style=&quot;margin:0px;margin-left:4px;&quot;&gt;&lt;br&gt;&lt;/p&gt;&lt;hr size=&quot;1&quot;&gt;&lt;p style=&quot;margin:0px;margin-left:4px;&quot;&gt;&lt;br&gt;&lt;/p&gt;" style="verticalAlign=top;align=left;overflow=fill;fontSize=12;fontFamily=Helvetica;html=1;" vertex="1" parent="1">
          <mxGeometry x="134.5" y="580" width="125" height="40" as="geometry" />
        </mxCell>
        <mxCell id="F6NlYaJqoR_ZFJgJRjci-15" value="communicate" style="edgeStyle=none;rounded=0;orthogonalLoop=1;jettySize=auto;html=1;exitX=0.5;exitY=0;exitDx=0;exitDy=0;entryX=0.5;entryY=1;entryDx=0;entryDy=0;startArrow=none;startFill=0;endArrow=none;endFill=0;startSize=15;endSize=13;" edge="1" parent="1" source="F6NlYaJqoR_ZFJgJRjci-16" target="F6NlYaJqoR_ZFJgJRjci-12">
          <mxGeometry x="-0.12" relative="1" as="geometry">
            <mxPoint as="offset" />
          </mxGeometry>
        </mxCell>
        <mxCell id="F6NlYaJqoR_ZFJgJRjci-16" value="&lt;p style=&quot;margin:0px;margin-top:4px;text-align:center;&quot;&gt;&lt;i&gt;&amp;lt;&amp;lt;&lt;/i&gt;&lt;i&gt;Language&lt;/i&gt;&lt;i&gt;&amp;gt;&amp;gt;&lt;/i&gt;&lt;br&gt;&lt;b&gt;CroquetClient&lt;/b&gt;&lt;/p&gt;&lt;hr size=&quot;1&quot;&gt;&lt;p style=&quot;margin:0px;margin-left:4px;&quot;&gt;&lt;br&gt;&lt;/p&gt;&lt;hr size=&quot;1&quot;&gt;&lt;p style=&quot;margin:0px;margin-left:4px;&quot;&gt;&lt;br&gt;&lt;/p&gt;" style="verticalAlign=top;align=left;overflow=fill;fontSize=12;fontFamily=Helvetica;html=1;" vertex="1" parent="1">
          <mxGeometry x="359" y="580" width="125" height="40" as="geometry" />
        </mxCell>
        <mxCell id="F6NlYaJqoR_ZFJgJRjci-17" value="communicate" style="edgeStyle=none;rounded=0;orthogonalLoop=1;jettySize=auto;html=1;exitX=0.5;exitY=0;exitDx=0;exitDy=0;entryX=0.5;entryY=1;entryDx=0;entryDy=0;startArrow=none;startFill=0;endArrow=none;endFill=0;startSize=15;endSize=13;" edge="1" parent="1" source="F6NlYaJqoR_ZFJgJRjci-18" target="F6NlYaJqoR_ZFJgJRjci-12">
          <mxGeometry relative="1" as="geometry" />
        </mxCell>
        <mxCell id="F6NlYaJqoR_ZFJgJRjci-18" value="&lt;p style=&quot;margin:0px;margin-top:4px;text-align:center;&quot;&gt;&lt;i&gt;&amp;lt;&amp;lt;&lt;/i&gt;&lt;i&gt;Language&lt;/i&gt;&lt;i&gt;&amp;gt;&amp;gt;&lt;/i&gt;&lt;br&gt;&lt;b&gt;CroquetClient&lt;/b&gt;&lt;/p&gt;&lt;hr size=&quot;1&quot;&gt;&lt;p style=&quot;margin:0px;margin-left:4px;&quot;&gt;&lt;br&gt;&lt;/p&gt;&lt;hr size=&quot;1&quot;&gt;&lt;p style=&quot;margin:0px;margin-left:4px;&quot;&gt;&lt;br&gt;&lt;/p&gt;" style="verticalAlign=top;align=left;overflow=fill;fontSize=12;fontFamily=Helvetica;html=1;" vertex="1" parent="1">
          <mxGeometry x="579" y="580" width="125" height="40" as="geometry" />
        </mxCell>
        <mxCell id="F6NlYaJqoR_ZFJgJRjci-19" value="use" style="edgeStyle=none;rounded=0;orthogonalLoop=1;jettySize=auto;html=1;exitX=0.5;exitY=0;exitDx=0;exitDy=0;entryX=0.5;entryY=1;entryDx=0;entryDy=0;startArrow=none;startFill=0;endArrow=none;endFill=0;startSize=15;endSize=13;" edge="1" parent="1" source="F6NlYaJqoR_ZFJgJRjci-20" target="F6NlYaJqoR_ZFJgJRjci-14">
          <mxGeometry relative="1" as="geometry" />
        </mxCell>
        <mxCell id="F6NlYaJqoR_ZFJgJRjci-20" value="&lt;p style=&quot;margin:0px;margin-top:4px;text-align:center;&quot;&gt;&lt;i&gt;&amp;lt;&amp;lt;&lt;/i&gt;&lt;i&gt;Language&lt;/i&gt;&lt;i&gt;&amp;gt;&amp;gt;&lt;/i&gt;&lt;br&gt;&lt;b&gt;ViewModel&lt;/b&gt;&lt;/p&gt;&lt;hr size=&quot;1&quot;&gt;&lt;p style=&quot;margin:0px;margin-left:4px;&quot;&gt;&lt;br&gt;&lt;/p&gt;&lt;hr size=&quot;1&quot;&gt;&lt;p style=&quot;margin:0px;margin-left:4px;&quot;&gt;&lt;br&gt;&lt;/p&gt;" style="verticalAlign=top;align=left;overflow=fill;fontSize=12;fontFamily=Helvetica;html=1;" vertex="1" parent="1">
          <mxGeometry x="134.5" y="660" width="125" height="40" as="geometry" />
        </mxCell>
        <mxCell id="F6NlYaJqoR_ZFJgJRjci-21" value="use" style="edgeStyle=none;rounded=0;orthogonalLoop=1;jettySize=auto;html=1;exitX=0.5;exitY=0;exitDx=0;exitDy=0;entryX=0.5;entryY=1;entryDx=0;entryDy=0;startArrow=none;startFill=0;endArrow=none;endFill=0;startSize=15;endSize=13;" edge="1" parent="1" source="F6NlYaJqoR_ZFJgJRjci-22" target="F6NlYaJqoR_ZFJgJRjci-16">
          <mxGeometry relative="1" as="geometry" />
        </mxCell>
        <mxCell id="F6NlYaJqoR_ZFJgJRjci-22" value="&lt;p style=&quot;margin:0px;margin-top:4px;text-align:center;&quot;&gt;&lt;i&gt;&amp;lt;&amp;lt;&lt;/i&gt;&lt;i&gt;Language&lt;/i&gt;&lt;i&gt;&amp;gt;&amp;gt;&lt;/i&gt;&lt;br&gt;&lt;b&gt;ViewModel&lt;/b&gt;&lt;/p&gt;&lt;hr size=&quot;1&quot;&gt;&lt;p style=&quot;margin:0px;margin-left:4px;&quot;&gt;&lt;br&gt;&lt;/p&gt;&lt;hr size=&quot;1&quot;&gt;&lt;p style=&quot;margin:0px;margin-left:4px;&quot;&gt;&lt;br&gt;&lt;/p&gt;" style="verticalAlign=top;align=left;overflow=fill;fontSize=12;fontFamily=Helvetica;html=1;" vertex="1" parent="1">
          <mxGeometry x="359" y="660" width="125" height="40" as="geometry" />
        </mxCell>
        <mxCell id="F6NlYaJqoR_ZFJgJRjci-23" value="use" style="edgeStyle=none;rounded=0;orthogonalLoop=1;jettySize=auto;html=1;exitX=0.5;exitY=0;exitDx=0;exitDy=0;entryX=0.5;entryY=1;entryDx=0;entryDy=0;startArrow=none;startFill=0;endArrow=none;endFill=0;startSize=15;endSize=13;" edge="1" parent="1" source="F6NlYaJqoR_ZFJgJRjci-24" target="F6NlYaJqoR_ZFJgJRjci-18">
          <mxGeometry relative="1" as="geometry" />
        </mxCell>
        <mxCell id="F6NlYaJqoR_ZFJgJRjci-24" value="&lt;p style=&quot;margin:0px;margin-top:4px;text-align:center;&quot;&gt;&lt;i&gt;&amp;lt;&amp;lt;&lt;/i&gt;&lt;i&gt;Language&lt;/i&gt;&lt;i&gt;&amp;gt;&amp;gt;&lt;/i&gt;&lt;br&gt;&lt;b&gt;ViewModel&lt;/b&gt;&lt;/p&gt;&lt;hr size=&quot;1&quot;&gt;&lt;p style=&quot;margin:0px;margin-left:4px;&quot;&gt;&lt;br&gt;&lt;/p&gt;&lt;hr size=&quot;1&quot;&gt;&lt;p style=&quot;margin:0px;margin-left:4px;&quot;&gt;&lt;br&gt;&lt;/p&gt;" style="verticalAlign=top;align=left;overflow=fill;fontSize=12;fontFamily=Helvetica;html=1;" vertex="1" parent="1">
          <mxGeometry x="579" y="660" width="125" height="40" as="geometry" />
        </mxCell>
        <mxCell id="F6NlYaJqoR_ZFJgJRjci-25" style="edgeStyle=none;rounded=0;orthogonalLoop=1;jettySize=auto;html=1;entryX=1;entryY=0.5;entryDx=0;entryDy=0;startArrow=none;startFill=0;endArrow=none;endFill=0;startSize=15;endSize=13;" edge="1" parent="1" source="F6NlYaJqoR_ZFJgJRjci-24" target="F6NlYaJqoR_ZFJgJRjci-24">
          <mxGeometry relative="1" as="geometry" />
        </mxCell>
        <mxCell id="vlOW6GMHQPARp10BK_gH-1" value="Client" style="shape=module;align=left;spacingLeft=20;align=center;verticalAlign=top;" vertex="1" parent="1">
          <mxGeometry x="1370" y="555" width="181" height="190" as="geometry" />
        </mxCell>
        <mxCell id="vlOW6GMHQPARp10BK_gH-2" value="Client" style="shape=module;align=left;spacingLeft=20;align=center;verticalAlign=top;" vertex="1" parent="1">
          <mxGeometry x="1146" y="555" width="181" height="190" as="geometry" />
        </mxCell>
        <mxCell id="vlOW6GMHQPARp10BK_gH-3" value="Client" style="shape=module;align=left;spacingLeft=20;align=center;verticalAlign=top;" vertex="1" parent="1">
          <mxGeometry x="920" y="555" width="181" height="190" as="geometry" />
        </mxCell>
        <mxCell id="vlOW6GMHQPARp10BK_gH-4" value="Proxy Javascript" style="shape=module;align=left;spacingLeft=20;align=center;verticalAlign=top;" vertex="1" parent="1">
          <mxGeometry x="921" y="135" width="630" height="380" as="geometry" />
        </mxCell>
        <mxCell id="vlOW6GMHQPARp10BK_gH-8" value="extends" style="edgeStyle=orthogonalEdgeStyle;rounded=0;orthogonalLoop=1;jettySize=auto;html=1;exitX=0.5;exitY=0;exitDx=0;exitDy=0;entryX=0.5;entryY=1;entryDx=0;entryDy=0;startArrow=none;startFill=0;endArrow=none;endFill=0;startSize=15;endSize=13;" edge="1" parent="1" source="vlOW6GMHQPARp10BK_gH-10" target="vlOW6GMHQPARp10BK_gH-11">
          <mxGeometry relative="1" as="geometry" />
        </mxCell>
        <mxCell id="vlOW6GMHQPARp10BK_gH-9" value="" style="edgeStyle=none;rounded=0;orthogonalLoop=1;jettySize=auto;html=1;exitX=1;exitY=0.5;exitDx=0;exitDy=0;entryX=0;entryY=0.5;entryDx=0;entryDy=0;startArrow=none;startFill=0;endArrow=none;endFill=0;startSize=15;endSize=13;" edge="1" parent="1" source="vlOW6GMHQPARp10BK_gH-10" target="vlOW6GMHQPARp10BK_gH-12">
          <mxGeometry relative="1" as="geometry" />
        </mxCell>
        <mxCell id="vlOW6GMHQPARp10BK_gH-10" value="&lt;p style=&quot;margin:0px;margin-top:4px;text-align:center;&quot;&gt;&lt;i&gt;&amp;lt;&amp;lt;&lt;/i&gt;&lt;i&gt;Javascript&lt;/i&gt;&lt;i&gt;&amp;gt;&amp;gt;&lt;/i&gt;&lt;br&gt;&lt;b&gt;AppModel&lt;/b&gt;&lt;/p&gt;&lt;hr size=&quot;1&quot;&gt;&lt;p style=&quot;margin:0px;margin-left:4px;&quot;&gt;&lt;br&gt;&lt;/p&gt;&lt;hr size=&quot;1&quot;&gt;&lt;p style=&quot;margin:0px;margin-left:4px;&quot;&gt;&lt;br&gt;&lt;/p&gt;" style="verticalAlign=top;align=left;overflow=fill;fontSize=12;fontFamily=Helvetica;html=1;" vertex="1" parent="1">
          <mxGeometry x="946" y="305" width="130" height="60" as="geometry" />
        </mxCell>
        <mxCell id="vlOW6GMHQPARp10BK_gH-11" value="&lt;p style=&quot;margin:0px;margin-top:4px;text-align:center;&quot;&gt;&lt;i&gt;&amp;lt;&amp;lt;&lt;/i&gt;&lt;i&gt;Javascript&lt;/i&gt;&lt;i&gt;&amp;gt;&amp;gt;&lt;/i&gt;&lt;br&gt;&lt;b&gt;Model&lt;/b&gt;&lt;/p&gt;&lt;hr size=&quot;1&quot;&gt;&lt;p style=&quot;margin:0px;margin-left:4px;&quot;&gt;&lt;br&gt;&lt;/p&gt;&lt;hr size=&quot;1&quot;&gt;&lt;p style=&quot;margin:0px;margin-left:4px;&quot;&gt;&lt;br&gt;&lt;/p&gt;" style="verticalAlign=top;align=left;overflow=fill;fontSize=12;fontFamily=Helvetica;html=1;" vertex="1" parent="1">
          <mxGeometry x="956.5" y="195" width="110" height="40" as="geometry" />
        </mxCell>
        <mxCell id="vlOW6GMHQPARp10BK_gH-12" value="&lt;p style=&quot;margin:0px;margin-top:4px;text-align:center;&quot;&gt;&lt;i&gt;&amp;lt;&amp;lt;Javascript&amp;gt;&amp;gt;&lt;/i&gt;&lt;br&gt;&lt;b&gt;ProxyView&lt;/b&gt;&lt;/p&gt;&lt;hr size=&quot;1&quot;&gt;&lt;p style=&quot;margin:0px;margin-left:4px;&quot;&gt;+ sockets: []&lt;/p&gt;&lt;p style=&quot;margin:0px;margin-left:4px;&quot;&gt;+ subscriptions: Map&amp;lt;Topic, Socket[]&amp;gt;&lt;/p&gt;&lt;hr size=&quot;1&quot;&gt;&lt;p style=&quot;margin:0px;margin-left:4px;&quot;&gt;&lt;br&gt;&lt;/p&gt;" style="verticalAlign=top;align=left;overflow=fill;fontSize=12;fontFamily=Helvetica;html=1;" vertex="1" parent="1">
          <mxGeometry x="1132.75" y="290" width="221.5" height="90" as="geometry" />
        </mxCell>
        <mxCell id="vlOW6GMHQPARp10BK_gH-13" value="communicate" style="edgeStyle=none;rounded=0;orthogonalLoop=1;jettySize=auto;html=1;exitX=0.5;exitY=0;exitDx=0;exitDy=0;entryX=0.5;entryY=1;entryDx=0;entryDy=0;startArrow=none;startFill=0;endArrow=none;endFill=0;startSize=15;endSize=13;" edge="1" parent="1" source="vlOW6GMHQPARp10BK_gH-14" target="vlOW6GMHQPARp10BK_gH-12">
          <mxGeometry relative="1" as="geometry" />
        </mxCell>
        <mxCell id="vlOW6GMHQPARp10BK_gH-14" value="&lt;p style=&quot;margin:0px;margin-top:4px;text-align:center;&quot;&gt;&lt;i&gt;&amp;lt;&amp;lt;Language&amp;gt;&amp;gt;&lt;/i&gt;&lt;br&gt;&lt;b&gt;CroquetClient&lt;/b&gt;&lt;/p&gt;&lt;hr size=&quot;1&quot;&gt;&lt;p style=&quot;margin:0px;margin-left:4px;&quot;&gt;&lt;br&gt;&lt;/p&gt;&lt;hr size=&quot;1&quot;&gt;&lt;p style=&quot;margin:0px;margin-left:4px;&quot;&gt;&lt;br&gt;&lt;/p&gt;" style="verticalAlign=top;align=left;overflow=fill;fontSize=12;fontFamily=Helvetica;html=1;" vertex="1" parent="1">
          <mxGeometry x="956.5" y="605" width="125" height="40" as="geometry" />
        </mxCell>
        <mxCell id="vlOW6GMHQPARp10BK_gH-15" value="communicate" style="edgeStyle=none;rounded=0;orthogonalLoop=1;jettySize=auto;html=1;exitX=0.5;exitY=0;exitDx=0;exitDy=0;entryX=0.5;entryY=1;entryDx=0;entryDy=0;startArrow=none;startFill=0;endArrow=none;endFill=0;startSize=15;endSize=13;" edge="1" parent="1" source="vlOW6GMHQPARp10BK_gH-16" target="vlOW6GMHQPARp10BK_gH-12">
          <mxGeometry x="-0.12" relative="1" as="geometry">
            <mxPoint as="offset" />
          </mxGeometry>
        </mxCell>
        <mxCell id="vlOW6GMHQPARp10BK_gH-16" value="&lt;p style=&quot;margin:0px;margin-top:4px;text-align:center;&quot;&gt;&lt;i&gt;&amp;lt;&amp;lt;&lt;/i&gt;&lt;i&gt;Language&lt;/i&gt;&lt;i&gt;&amp;gt;&amp;gt;&lt;/i&gt;&lt;br&gt;&lt;b&gt;CroquetClient&lt;/b&gt;&lt;/p&gt;&lt;hr size=&quot;1&quot;&gt;&lt;p style=&quot;margin:0px;margin-left:4px;&quot;&gt;&lt;br&gt;&lt;/p&gt;&lt;hr size=&quot;1&quot;&gt;&lt;p style=&quot;margin:0px;margin-left:4px;&quot;&gt;&lt;br&gt;&lt;/p&gt;" style="verticalAlign=top;align=left;overflow=fill;fontSize=12;fontFamily=Helvetica;html=1;" vertex="1" parent="1">
          <mxGeometry x="1181" y="605" width="125" height="40" as="geometry" />
        </mxCell>
        <mxCell id="vlOW6GMHQPARp10BK_gH-17" value="communicate" style="edgeStyle=none;rounded=0;orthogonalLoop=1;jettySize=auto;html=1;exitX=0.5;exitY=0;exitDx=0;exitDy=0;entryX=0.5;entryY=1;entryDx=0;entryDy=0;startArrow=none;startFill=0;endArrow=none;endFill=0;startSize=15;endSize=13;" edge="1" parent="1" source="vlOW6GMHQPARp10BK_gH-18" target="vlOW6GMHQPARp10BK_gH-12">
          <mxGeometry relative="1" as="geometry" />
        </mxCell>
        <mxCell id="vlOW6GMHQPARp10BK_gH-18" value="&lt;p style=&quot;margin:0px;margin-top:4px;text-align:center;&quot;&gt;&lt;i&gt;&amp;lt;&amp;lt;&lt;/i&gt;&lt;i&gt;Language&lt;/i&gt;&lt;i&gt;&amp;gt;&amp;gt;&lt;/i&gt;&lt;br&gt;&lt;b&gt;CroquetClient&lt;/b&gt;&lt;/p&gt;&lt;hr size=&quot;1&quot;&gt;&lt;p style=&quot;margin:0px;margin-left:4px;&quot;&gt;&lt;br&gt;&lt;/p&gt;&lt;hr size=&quot;1&quot;&gt;&lt;p style=&quot;margin:0px;margin-left:4px;&quot;&gt;&lt;br&gt;&lt;/p&gt;" style="verticalAlign=top;align=left;overflow=fill;fontSize=12;fontFamily=Helvetica;html=1;" vertex="1" parent="1">
          <mxGeometry x="1401" y="605" width="125" height="40" as="geometry" />
        </mxCell>
        <mxCell id="vlOW6GMHQPARp10BK_gH-19" value="use" style="edgeStyle=none;rounded=0;orthogonalLoop=1;jettySize=auto;html=1;exitX=0.5;exitY=0;exitDx=0;exitDy=0;entryX=0.5;entryY=1;entryDx=0;entryDy=0;startArrow=none;startFill=0;endArrow=none;endFill=0;startSize=15;endSize=13;" edge="1" parent="1" source="vlOW6GMHQPARp10BK_gH-20" target="vlOW6GMHQPARp10BK_gH-14">
          <mxGeometry relative="1" as="geometry" />
        </mxCell>
        <mxCell id="vlOW6GMHQPARp10BK_gH-20" value="&lt;p style=&quot;margin:0px;margin-top:4px;text-align:center;&quot;&gt;&lt;i&gt;&amp;lt;&amp;lt;&lt;/i&gt;&lt;i&gt;Language&lt;/i&gt;&lt;i&gt;&amp;gt;&amp;gt;&lt;/i&gt;&lt;br&gt;&lt;b&gt;ViewModel&lt;/b&gt;&lt;/p&gt;&lt;hr size=&quot;1&quot;&gt;&lt;p style=&quot;margin:0px;margin-left:4px;&quot;&gt;&lt;br&gt;&lt;/p&gt;&lt;hr size=&quot;1&quot;&gt;&lt;p style=&quot;margin:0px;margin-left:4px;&quot;&gt;&lt;br&gt;&lt;/p&gt;" style="verticalAlign=top;align=left;overflow=fill;fontSize=12;fontFamily=Helvetica;html=1;" vertex="1" parent="1">
          <mxGeometry x="956.5" y="685" width="125" height="40" as="geometry" />
        </mxCell>
        <mxCell id="vlOW6GMHQPARp10BK_gH-21" value="use" style="edgeStyle=none;rounded=0;orthogonalLoop=1;jettySize=auto;html=1;exitX=0.5;exitY=0;exitDx=0;exitDy=0;entryX=0.5;entryY=1;entryDx=0;entryDy=0;startArrow=none;startFill=0;endArrow=none;endFill=0;startSize=15;endSize=13;" edge="1" parent="1" source="vlOW6GMHQPARp10BK_gH-22" target="vlOW6GMHQPARp10BK_gH-16">
          <mxGeometry relative="1" as="geometry" />
        </mxCell>
        <mxCell id="vlOW6GMHQPARp10BK_gH-22" value="&lt;p style=&quot;margin:0px;margin-top:4px;text-align:center;&quot;&gt;&lt;i&gt;&amp;lt;&amp;lt;&lt;/i&gt;&lt;i&gt;Language&lt;/i&gt;&lt;i&gt;&amp;gt;&amp;gt;&lt;/i&gt;&lt;br&gt;&lt;b&gt;ViewModel&lt;/b&gt;&lt;/p&gt;&lt;hr size=&quot;1&quot;&gt;&lt;p style=&quot;margin:0px;margin-left:4px;&quot;&gt;&lt;br&gt;&lt;/p&gt;&lt;hr size=&quot;1&quot;&gt;&lt;p style=&quot;margin:0px;margin-left:4px;&quot;&gt;&lt;br&gt;&lt;/p&gt;" style="verticalAlign=top;align=left;overflow=fill;fontSize=12;fontFamily=Helvetica;html=1;" vertex="1" parent="1">
          <mxGeometry x="1181" y="685" width="125" height="40" as="geometry" />
        </mxCell>
        <mxCell id="vlOW6GMHQPARp10BK_gH-23" value="use" style="edgeStyle=none;rounded=0;orthogonalLoop=1;jettySize=auto;html=1;exitX=0.5;exitY=0;exitDx=0;exitDy=0;entryX=0.5;entryY=1;entryDx=0;entryDy=0;startArrow=none;startFill=0;endArrow=none;endFill=0;startSize=15;endSize=13;" edge="1" parent="1" source="vlOW6GMHQPARp10BK_gH-24" target="vlOW6GMHQPARp10BK_gH-18">
          <mxGeometry relative="1" as="geometry" />
        </mxCell>
        <mxCell id="vlOW6GMHQPARp10BK_gH-24" value="&lt;p style=&quot;margin:0px;margin-top:4px;text-align:center;&quot;&gt;&lt;i&gt;&amp;lt;&amp;lt;&lt;/i&gt;&lt;i&gt;Language&lt;/i&gt;&lt;i&gt;&amp;gt;&amp;gt;&lt;/i&gt;&lt;br&gt;&lt;b&gt;ViewModel&lt;/b&gt;&lt;/p&gt;&lt;hr size=&quot;1&quot;&gt;&lt;p style=&quot;margin:0px;margin-left:4px;&quot;&gt;&lt;br&gt;&lt;/p&gt;&lt;hr size=&quot;1&quot;&gt;&lt;p style=&quot;margin:0px;margin-left:4px;&quot;&gt;&lt;br&gt;&lt;/p&gt;" style="verticalAlign=top;align=left;overflow=fill;fontSize=12;fontFamily=Helvetica;html=1;" vertex="1" parent="1">
          <mxGeometry x="1401" y="685" width="125" height="40" as="geometry" />
        </mxCell>
        <mxCell id="vlOW6GMHQPARp10BK_gH-25" style="edgeStyle=none;rounded=0;orthogonalLoop=1;jettySize=auto;html=1;entryX=1;entryY=0.5;entryDx=0;entryDy=0;startArrow=none;startFill=0;endArrow=none;endFill=0;startSize=15;endSize=13;" edge="1" parent="1" source="vlOW6GMHQPARp10BK_gH-24" target="vlOW6GMHQPARp10BK_gH-24">
          <mxGeometry relative="1" as="geometry" />
        </mxCell>
        <mxCell id="Hd7D0dFm6dqmPO5uhmJe-25" value="use" style="edgeStyle=orthogonalEdgeStyle;rounded=0;orthogonalLoop=1;jettySize=auto;html=1;exitX=0.5;exitY=0;exitDx=0;exitDy=0;entryX=0;entryY=0.5;entryDx=0;entryDy=0;startArrow=none;startFill=0;endArrow=classic;endFill=1;startSize=12;endSize=10;" edge="1" parent="1" source="Hd7D0dFm6dqmPO5uhmJe-2" target="Hd7D0dFm6dqmPO5uhmJe-4">
          <mxGeometry relative="1" as="geometry" />
        </mxCell>
        <mxCell id="Hd7D0dFm6dqmPO5uhmJe-2" value="&lt;p style=&quot;margin:0px;margin-top:4px;text-align:center;&quot;&gt;&lt;b&gt;ComponentModel&lt;/b&gt;&lt;/p&gt;&lt;hr size=&quot;1&quot;&gt;&lt;p style=&quot;margin:0px;margin-left:4px;&quot;&gt;+ registerData(key: String, value: Object)&lt;/p&gt;&lt;p style=&quot;margin:0px;margin-left:4px;&quot;&gt;+ getData(): Object&lt;/p&gt;&lt;hr size=&quot;1&quot;&gt;&lt;p style=&quot;margin:0px;margin-left:4px;&quot;&gt;&lt;br&gt;&lt;/p&gt;" style="verticalAlign=top;align=left;overflow=fill;fontSize=12;fontFamily=Helvetica;html=1;" vertex="1" parent="1">
          <mxGeometry x="1280" y="1140" width="263" height="70" as="geometry" />
        </mxCell>
        <mxCell id="Hd7D0dFm6dqmPO5uhmJe-24" value="use" style="edgeStyle=orthogonalEdgeStyle;rounded=0;orthogonalLoop=1;jettySize=auto;html=1;exitX=0.5;exitY=0;exitDx=0;exitDy=0;entryX=1;entryY=0.5;entryDx=0;entryDy=0;startArrow=none;startFill=0;endArrow=classic;endFill=1;startSize=12;endSize=10;" edge="1" parent="1" source="Hd7D0dFm6dqmPO5uhmJe-3" target="Hd7D0dFm6dqmPO5uhmJe-4">
          <mxGeometry relative="1" as="geometry" />
        </mxCell>
        <mxCell id="Hd7D0dFm6dqmPO5uhmJe-9" value="contains" style="edgeStyle=orthogonalEdgeStyle;rounded=0;orthogonalLoop=1;jettySize=auto;html=1;exitX=0;exitY=0.5;exitDx=0;exitDy=0;entryX=1;entryY=0.5;entryDx=0;entryDy=0;endArrow=none;endFill=0;startArrow=diamond;startFill=0;endSize=10;startSize=12;" edge="1" parent="1" source="Hd7D0dFm6dqmPO5uhmJe-3" target="Hd7D0dFm6dqmPO5uhmJe-2">
          <mxGeometry relative="1" as="geometry" />
        </mxCell>
        <mxCell id="Hd7D0dFm6dqmPO5uhmJe-3" value="&lt;p style=&quot;margin:0px;margin-top:4px;text-align:center;&quot;&gt;&lt;b&gt;ApplicationModel&lt;/b&gt;&lt;/p&gt;&lt;hr size=&quot;1&quot;&gt;&lt;p style=&quot;margin:0px;margin-left:4px;&quot;&gt;+ registerComponent(component: ModelComponent)&lt;/p&gt;&lt;p style=&quot;margin:0px;margin-left:4px;&quot;&gt;+ registerData(key: String, value: Object)&lt;/p&gt;&lt;p style=&quot;margin:0px;margin-left:4px;&quot;&gt;+ getData(): Object&lt;/p&gt;&lt;p style=&quot;margin:0px;margin-left:4px;&quot;&gt;&lt;br&gt;&lt;/p&gt;&lt;hr size=&quot;1&quot;&gt;&lt;p style=&quot;margin:0px;margin-left:4px;&quot;&gt;&lt;br&gt;&lt;/p&gt;" style="verticalAlign=top;align=left;overflow=fill;fontSize=12;fontFamily=Helvetica;html=1;" vertex="1" parent="1">
          <mxGeometry x="1730" y="1135" width="300" height="80" as="geometry" />
        </mxCell>
        <mxCell id="Hd7D0dFm6dqmPO5uhmJe-4" value="&lt;p style=&quot;margin:0px;margin-top:4px;text-align:center;&quot;&gt;&lt;b&gt;DataModel&lt;/b&gt;&lt;/p&gt;&lt;hr size=&quot;1&quot;&gt;&lt;p style=&quot;margin:0px;margin-left:4px;&quot;&gt;+ registerData(key: String, value: Object)&lt;/p&gt;&lt;p style=&quot;margin:0px;margin-left:4px;&quot;&gt;+ getData(): Object&lt;/p&gt;&lt;hr size=&quot;1&quot;&gt;&lt;p style=&quot;margin:0px;margin-left:4px;&quot;&gt;&lt;br&gt;&lt;/p&gt;" style="verticalAlign=top;align=left;overflow=fill;fontSize=12;fontFamily=Helvetica;html=1;" vertex="1" parent="1">
          <mxGeometry x="1520" y="937.5" width="237" height="65" as="geometry" />
        </mxCell>
        <mxCell id="Hd7D0dFm6dqmPO5uhmJe-11" value="&lt;p style=&quot;margin:0px;margin-top:4px;text-align:center;&quot;&gt;&lt;b&gt;Component1Model&lt;/b&gt;&lt;/p&gt;&lt;hr size=&quot;1&quot;&gt;&lt;p style=&quot;margin:0px;margin-left:4px;&quot;&gt;&lt;br&gt;&lt;/p&gt;&lt;hr size=&quot;1&quot;&gt;&lt;p style=&quot;margin:0px;margin-left:4px;&quot;&gt;&lt;br&gt;&lt;/p&gt;" style="verticalAlign=top;align=left;overflow=fill;fontSize=12;fontFamily=Helvetica;html=1;" vertex="1" parent="1">
          <mxGeometry x="1050" y="960" width="143" height="20" as="geometry" />
        </mxCell>
        <mxCell id="Hd7D0dFm6dqmPO5uhmJe-13" value="&lt;p style=&quot;margin:0px;margin-top:4px;text-align:center;&quot;&gt;&lt;b&gt;Component2Model&lt;/b&gt;&lt;/p&gt;&lt;hr size=&quot;1&quot;&gt;&lt;p style=&quot;margin:0px;margin-left:4px;&quot;&gt;&lt;br&gt;&lt;/p&gt;&lt;hr size=&quot;1&quot;&gt;&lt;p style=&quot;margin:0px;margin-left:4px;&quot;&gt;&lt;br&gt;&lt;/p&gt;" style="verticalAlign=top;align=left;overflow=fill;fontSize=12;fontFamily=Helvetica;html=1;" vertex="1" parent="1">
          <mxGeometry x="1050" y="995" width="143" height="20" as="geometry" />
        </mxCell>
        <mxCell id="Hd7D0dFm6dqmPO5uhmJe-15" value="&lt;p style=&quot;margin:0px;margin-top:4px;text-align:center;&quot;&gt;&lt;b&gt;Component3Model&lt;/b&gt;&lt;/p&gt;&lt;hr size=&quot;1&quot;&gt;&lt;p style=&quot;margin:0px;margin-left:4px;&quot;&gt;&lt;br&gt;&lt;/p&gt;&lt;hr size=&quot;1&quot;&gt;&lt;p style=&quot;margin:0px;margin-left:4px;&quot;&gt;&lt;br&gt;&lt;/p&gt;" style="verticalAlign=top;align=left;overflow=fill;fontSize=12;fontFamily=Helvetica;html=1;" vertex="1" parent="1">
          <mxGeometry x="1050" y="1030" width="143" height="20" as="geometry" />
        </mxCell>
        <mxCell id="Hd7D0dFm6dqmPO5uhmJe-20" style="edgeStyle=orthogonalEdgeStyle;rounded=0;orthogonalLoop=1;jettySize=auto;html=1;exitX=0;exitY=0.5;exitDx=0;exitDy=0;entryX=0;entryY=0.5;entryDx=0;entryDy=0;" edge="1" parent="1" source="Hd7D0dFm6dqmPO5uhmJe-17" target="Hd7D0dFm6dqmPO5uhmJe-11">
          <mxGeometry relative="1" as="geometry" />
        </mxCell>
        <mxCell id="Hd7D0dFm6dqmPO5uhmJe-21" style="edgeStyle=orthogonalEdgeStyle;rounded=0;orthogonalLoop=1;jettySize=auto;html=1;exitX=0;exitY=0.5;exitDx=0;exitDy=0;entryX=0;entryY=0.5;entryDx=0;entryDy=0;" edge="1" parent="1" source="Hd7D0dFm6dqmPO5uhmJe-17" target="Hd7D0dFm6dqmPO5uhmJe-13">
          <mxGeometry relative="1" as="geometry" />
        </mxCell>
        <mxCell id="Hd7D0dFm6dqmPO5uhmJe-22" style="edgeStyle=orthogonalEdgeStyle;rounded=0;orthogonalLoop=1;jettySize=auto;html=1;exitX=0;exitY=0.5;exitDx=0;exitDy=0;entryX=0;entryY=0.5;entryDx=0;entryDy=0;" edge="1" parent="1" source="Hd7D0dFm6dqmPO5uhmJe-17" target="Hd7D0dFm6dqmPO5uhmJe-15">
          <mxGeometry relative="1" as="geometry" />
        </mxCell>
        <mxCell id="Hd7D0dFm6dqmPO5uhmJe-17" value="&lt;p style=&quot;margin:0px;margin-top:4px;text-align:center;&quot;&gt;&lt;b&gt;MainApplicationModel&lt;/b&gt;&lt;/p&gt;&lt;hr size=&quot;1&quot;&gt;&lt;p style=&quot;margin:0px;margin-left:4px;&quot;&gt;&lt;br&gt;&lt;/p&gt;&lt;hr size=&quot;1&quot;&gt;&lt;p style=&quot;margin:0px;margin-left:4px;&quot;&gt;&lt;br&gt;&lt;/p&gt;" style="verticalAlign=top;align=left;overflow=fill;fontSize=12;fontFamily=Helvetica;html=1;" vertex="1" parent="1">
          <mxGeometry x="1050" y="1145" width="150" height="20" as="geometry" />
        </mxCell>
        <mxCell id="Hd7D0dFm6dqmPO5uhmJe-27" value="&lt;p style=&quot;margin:0px;margin-top:4px;text-align:center;&quot;&gt;&lt;b&gt;ProxyView&lt;/b&gt;&lt;/p&gt;&lt;hr size=&quot;1&quot;&gt;&lt;p style=&quot;margin:0px;margin-left:4px;&quot;&gt;+ addSocket(socket: Socket)&lt;/p&gt;&lt;p style=&quot;margin:0px;margin-left:4px;&quot;&gt;+ removeSocket(socket: Socket)&lt;/p&gt;&lt;p style=&quot;margin:0px;margin-left:4px;&quot;&gt;+ handleEvent(scope: String, event: String, data: Object)&lt;/p&gt;&lt;p style=&quot;margin:0px;margin-left:4px;&quot;&gt;+ checkDataUpdate()&lt;/p&gt;&lt;p style=&quot;margin:0px;margin-left:4px;&quot;&gt;&lt;br&gt;&lt;/p&gt;&lt;hr size=&quot;1&quot;&gt;&lt;p style=&quot;margin:0px;margin-left:4px;&quot;&gt;&lt;br&gt;&lt;/p&gt;" style="verticalAlign=top;align=left;overflow=fill;fontSize=12;fontFamily=Helvetica;html=1;" vertex="1" parent="1">
          <mxGeometry x="2075" y="950" width="330" height="100" as="geometry" />
        </mxCell>
        <mxCell id="Hd7D0dFm6dqmPO5uhmJe-30" style="edgeStyle=orthogonalEdgeStyle;rounded=0;orthogonalLoop=1;jettySize=auto;html=1;exitX=0.5;exitY=0;exitDx=0;exitDy=0;entryX=0.5;entryY=1;entryDx=0;entryDy=0;startArrow=block;startFill=1;endArrow=none;endFill=0;startSize=12;endSize=10;" edge="1" parent="1" source="Hd7D0dFm6dqmPO5uhmJe-28" target="Hd7D0dFm6dqmPO5uhmJe-4">
          <mxGeometry relative="1" as="geometry" />
        </mxCell>
        <mxCell id="Hd7D0dFm6dqmPO5uhmJe-32" style="edgeStyle=orthogonalEdgeStyle;rounded=0;orthogonalLoop=1;jettySize=auto;html=1;exitX=0;exitY=0.5;exitDx=0;exitDy=0;entryX=0.75;entryY=0;entryDx=0;entryDy=0;startArrow=block;startFill=1;endArrow=none;endFill=0;startSize=12;endSize=10;" edge="1" parent="1" source="Hd7D0dFm6dqmPO5uhmJe-28" target="Hd7D0dFm6dqmPO5uhmJe-2">
          <mxGeometry relative="1" as="geometry" />
        </mxCell>
        <mxCell id="Hd7D0dFm6dqmPO5uhmJe-33" style="edgeStyle=orthogonalEdgeStyle;rounded=0;orthogonalLoop=1;jettySize=auto;html=1;exitX=1;exitY=0.5;exitDx=0;exitDy=0;entryX=0.25;entryY=0;entryDx=0;entryDy=0;startArrow=block;startFill=1;endArrow=none;endFill=0;startSize=12;endSize=10;" edge="1" parent="1" source="Hd7D0dFm6dqmPO5uhmJe-28" target="Hd7D0dFm6dqmPO5uhmJe-3">
          <mxGeometry relative="1" as="geometry" />
        </mxCell>
        <mxCell id="Hd7D0dFm6dqmPO5uhmJe-28" value="&lt;p style=&quot;margin:0px;margin-top:4px;text-align:center;&quot;&gt;&lt;i&gt;&amp;lt;&amp;lt;&lt;/i&gt;&lt;i&gt;Croquet&lt;/i&gt;&lt;i&gt;&amp;gt;&amp;gt;&lt;/i&gt;&lt;br&gt;&lt;b&gt;Model&lt;/b&gt;&lt;/p&gt;&lt;hr size=&quot;1&quot;&gt;&lt;p style=&quot;margin:0px;margin-left:4px;&quot;&gt;&lt;br&gt;&lt;/p&gt;&lt;hr size=&quot;1&quot;&gt;&lt;p style=&quot;margin:0px;margin-left:4px;&quot;&gt;&lt;br&gt;&lt;/p&gt;" style="verticalAlign=top;align=left;overflow=fill;fontSize=12;fontFamily=Helvetica;html=1;" vertex="1" parent="1">
          <mxGeometry x="1576" y="1060" width="125" height="40" as="geometry" />
        </mxCell>
        <mxCell id="Hd7D0dFm6dqmPO5uhmJe-36" style="edgeStyle=orthogonalEdgeStyle;rounded=0;orthogonalLoop=1;jettySize=auto;html=1;exitX=0.5;exitY=1;exitDx=0;exitDy=0;entryX=0.5;entryY=0;entryDx=0;entryDy=0;startArrow=block;startFill=1;endArrow=none;endFill=0;startSize=12;endSize=10;" edge="1" parent="1" source="Hd7D0dFm6dqmPO5uhmJe-34" target="Hd7D0dFm6dqmPO5uhmJe-27">
          <mxGeometry relative="1" as="geometry" />
        </mxCell>
        <mxCell id="Hd7D0dFm6dqmPO5uhmJe-34" value="&lt;p style=&quot;margin:0px;margin-top:4px;text-align:center;&quot;&gt;&lt;i&gt;&amp;lt;&amp;lt;&lt;/i&gt;&lt;i&gt;Croquet&lt;/i&gt;&lt;i&gt;&amp;gt;&amp;gt;&lt;/i&gt;&lt;br&gt;&lt;b&gt;Model&lt;/b&gt;&lt;/p&gt;&lt;hr size=&quot;1&quot;&gt;&lt;p style=&quot;margin:0px;margin-left:4px;&quot;&gt;&lt;br&gt;&lt;/p&gt;&lt;hr size=&quot;1&quot;&gt;&lt;p style=&quot;margin:0px;margin-left:4px;&quot;&gt;&lt;br&gt;&lt;/p&gt;" style="verticalAlign=top;align=left;overflow=fill;fontSize=12;fontFamily=Helvetica;html=1;" vertex="1" parent="1">
          <mxGeometry x="2177.5" y="850" width="125" height="40" as="geometry" />
        </mxCell>
      </root>
    </mxGraphModel>
  </diagram>
  <diagram id="9s-vgeNV8Im9ywxxmeAp" name="Procedura">
    <mxGraphModel dx="677" dy="361" grid="1" gridSize="10" guides="1" tooltips="1" connect="1" arrows="1" fold="1" page="1" pageScale="1" pageWidth="827" pageHeight="1169" math="0" shadow="0">
      <root>
        <mxCell id="0" />
        <mxCell id="1" parent="0" />
        <mxCell id="xCaW9oIL88zcVQwAjOzC-4" value="Proxy" style="shape=umlLifeline;perimeter=lifelinePerimeter;whiteSpace=wrap;html=1;container=1;collapsible=0;recursiveResize=0;outlineConnect=0;" vertex="1" parent="1">
          <mxGeometry x="200" y="120" width="100" height="360" as="geometry" />
        </mxCell>
        <mxCell id="xCaW9oIL88zcVQwAjOzC-9" value="" style="html=1;points=[];perimeter=orthogonalPerimeter;" vertex="1" parent="xCaW9oIL88zcVQwAjOzC-4">
          <mxGeometry x="45" y="70" width="10" height="30" as="geometry" />
        </mxCell>
        <mxCell id="xCaW9oIL88zcVQwAjOzC-15" value="" style="html=1;points=[];perimeter=orthogonalPerimeter;" vertex="1" parent="xCaW9oIL88zcVQwAjOzC-4">
          <mxGeometry x="45" y="130" width="10" height="70" as="geometry" />
        </mxCell>
        <mxCell id="xCaW9oIL88zcVQwAjOzC-24" value="" style="html=1;points=[];perimeter=orthogonalPerimeter;" vertex="1" parent="xCaW9oIL88zcVQwAjOzC-4">
          <mxGeometry x="45" y="230" width="10" height="30" as="geometry" />
        </mxCell>
        <mxCell id="xCaW9oIL88zcVQwAjOzC-5" value="Client" style="shape=umlLifeline;perimeter=lifelinePerimeter;whiteSpace=wrap;html=1;container=1;collapsible=0;recursiveResize=0;outlineConnect=0;" vertex="1" parent="1">
          <mxGeometry x="400" y="120" width="100" height="360" as="geometry" />
        </mxCell>
        <mxCell id="xCaW9oIL88zcVQwAjOzC-13" value="" style="html=1;points=[];perimeter=orthogonalPerimeter;" vertex="1" parent="xCaW9oIL88zcVQwAjOzC-5">
          <mxGeometry x="45" y="100" width="10" height="30" as="geometry" />
        </mxCell>
        <mxCell id="xCaW9oIL88zcVQwAjOzC-22" value="" style="html=1;points=[];perimeter=orthogonalPerimeter;" vertex="1" parent="xCaW9oIL88zcVQwAjOzC-5">
          <mxGeometry x="45" y="160" width="10" height="20" as="geometry" />
        </mxCell>
        <mxCell id="xCaW9oIL88zcVQwAjOzC-10" value="connect" style="html=1;verticalAlign=bottom;endArrow=block;entryX=0.969;entryY=0;rounded=0;entryDx=0;entryDy=0;entryPerimeter=0;" edge="1" target="xCaW9oIL88zcVQwAjOzC-9" parent="1" source="xCaW9oIL88zcVQwAjOzC-5">
          <mxGeometry relative="1" as="geometry">
            <mxPoint x="180" y="190" as="sourcePoint" />
          </mxGeometry>
        </mxCell>
        <mxCell id="xCaW9oIL88zcVQwAjOzC-8" value="connection-ready" style="html=1;verticalAlign=bottom;endArrow=block;rounded=0;exitX=0.508;exitY=1.005;exitDx=0;exitDy=0;exitPerimeter=0;entryX=0.508;entryY=0.002;entryDx=0;entryDy=0;entryPerimeter=0;" edge="1" parent="1" source="xCaW9oIL88zcVQwAjOzC-9" target="xCaW9oIL88zcVQwAjOzC-13">
          <mxGeometry width="80" relative="1" as="geometry">
            <mxPoint x="330" y="280" as="sourcePoint" />
            <mxPoint x="380" y="200" as="targetPoint" />
            <Array as="points" />
          </mxGeometry>
        </mxCell>
        <mxCell id="xCaW9oIL88zcVQwAjOzC-14" value="join" style="html=1;verticalAlign=bottom;endArrow=block;rounded=0;exitX=0.5;exitY=0.993;exitDx=0;exitDy=0;exitPerimeter=0;entryX=0.507;entryY=0.002;entryDx=0;entryDy=0;entryPerimeter=0;" edge="1" parent="1" source="xCaW9oIL88zcVQwAjOzC-13" target="xCaW9oIL88zcVQwAjOzC-15">
          <mxGeometry width="80" relative="1" as="geometry">
            <mxPoint x="260.0799999999999" y="250.25" as="sourcePoint" />
            <mxPoint x="459.5" y="250" as="targetPoint" />
            <Array as="points" />
          </mxGeometry>
        </mxCell>
        <mxCell id="xCaW9oIL88zcVQwAjOzC-16" value="data" style="html=1;verticalAlign=bottom;endArrow=block;rounded=0;entryX=0.5;entryY=-0.004;entryDx=0;entryDy=0;entryPerimeter=0;exitX=1.033;exitY=0.429;exitDx=0;exitDy=0;exitPerimeter=0;" edge="1" parent="1" source="xCaW9oIL88zcVQwAjOzC-15" target="xCaW9oIL88zcVQwAjOzC-22">
          <mxGeometry width="80" relative="1" as="geometry">
            <mxPoint x="260" y="280" as="sourcePoint" />
            <mxPoint x="459.5" y="250" as="targetPoint" />
            <Array as="points">
              <mxPoint x="360" y="280" />
            </Array>
          </mxGeometry>
        </mxCell>
        <mxCell id="xCaW9oIL88zcVQwAjOzC-21" value="ready" style="html=1;verticalAlign=bottom;endArrow=block;rounded=0;exitX=0.501;exitY=1.003;exitDx=0;exitDy=0;exitPerimeter=0;entryX=0.501;entryY=0.006;entryDx=0;entryDy=0;entryPerimeter=0;" edge="1" parent="1" source="xCaW9oIL88zcVQwAjOzC-15">
          <mxGeometry width="80" relative="1" as="geometry">
            <mxPoint x="264.90999999999997" y="279.95" as="sourcePoint" />
            <mxPoint x="450.01" y="320.18000000000006" as="targetPoint" />
            <Array as="points" />
          </mxGeometry>
        </mxCell>
        <mxCell id="xCaW9oIL88zcVQwAjOzC-25" value="subscribe" style="html=1;verticalAlign=bottom;endArrow=block;rounded=0;entryX=0.56;entryY=-0.013;entryDx=0;entryDy=0;entryPerimeter=0;exitX=0.5;exitY=1;exitDx=0;exitDy=0;exitPerimeter=0;" edge="1" parent="1" target="xCaW9oIL88zcVQwAjOzC-24">
          <mxGeometry width="80" relative="1" as="geometry">
            <mxPoint x="450" y="350" as="sourcePoint" />
            <mxPoint x="450.0000000000001" y="379.99999999999994" as="targetPoint" />
            <Array as="points">
              <mxPoint x="380" y="350" />
            </Array>
          </mxGeometry>
        </mxCell>
      </root>
    </mxGraphModel>
  </diagram>
  <diagram id="jj9TgrbT37ewWctDREif" name="Page-4">
    <mxGraphModel dx="595" dy="758" grid="1" gridSize="10" guides="1" tooltips="1" connect="1" arrows="1" fold="1" page="1" pageScale="1" pageWidth="827" pageHeight="1169" math="0" shadow="0">
      <root>
        <mxCell id="0" />
        <mxCell id="1" parent="0" />
        <mxCell id="NxL4fcDI5rz3Jupc14Vp-1" value="Client" style="shape=module;align=left;spacingLeft=20;align=center;verticalAlign=top;" vertex="1" parent="1">
          <mxGeometry x="1370" y="555" width="181" height="190" as="geometry" />
        </mxCell>
        <mxCell id="NxL4fcDI5rz3Jupc14Vp-2" value="Client" style="shape=module;align=left;spacingLeft=20;align=center;verticalAlign=top;" vertex="1" parent="1">
          <mxGeometry x="1146" y="555" width="181" height="190" as="geometry" />
        </mxCell>
        <mxCell id="NxL4fcDI5rz3Jupc14Vp-3" value="Client" style="shape=module;align=left;spacingLeft=20;align=center;verticalAlign=top;" vertex="1" parent="1">
          <mxGeometry x="920" y="555" width="181" height="190" as="geometry" />
        </mxCell>
        <mxCell id="NxL4fcDI5rz3Jupc14Vp-4" value="Proxy Javascript" style="shape=module;align=left;spacingLeft=20;align=center;verticalAlign=top;" vertex="1" parent="1">
          <mxGeometry x="921" y="135" width="630" height="380" as="geometry" />
        </mxCell>
        <mxCell id="NxL4fcDI5rz3Jupc14Vp-5" value="extends" style="edgeStyle=orthogonalEdgeStyle;rounded=0;orthogonalLoop=1;jettySize=auto;html=1;exitX=0.5;exitY=0;exitDx=0;exitDy=0;entryX=0.5;entryY=1;entryDx=0;entryDy=0;startArrow=none;startFill=0;endArrow=none;endFill=0;startSize=15;endSize=13;" edge="1" parent="1" source="NxL4fcDI5rz3Jupc14Vp-7" target="NxL4fcDI5rz3Jupc14Vp-8">
          <mxGeometry relative="1" as="geometry" />
        </mxCell>
        <mxCell id="NxL4fcDI5rz3Jupc14Vp-6" value="" style="edgeStyle=none;rounded=0;orthogonalLoop=1;jettySize=auto;html=1;exitX=1;exitY=0.5;exitDx=0;exitDy=0;entryX=0;entryY=0.5;entryDx=0;entryDy=0;startArrow=none;startFill=0;endArrow=none;endFill=0;startSize=15;endSize=13;" edge="1" parent="1" source="NxL4fcDI5rz3Jupc14Vp-7" target="NxL4fcDI5rz3Jupc14Vp-9">
          <mxGeometry relative="1" as="geometry" />
        </mxCell>
        <mxCell id="NxL4fcDI5rz3Jupc14Vp-7" value="&lt;p style=&quot;margin:0px;margin-top:4px;text-align:center;&quot;&gt;&lt;i&gt;&amp;lt;&amp;lt;&lt;/i&gt;&lt;i&gt;Javascript&lt;/i&gt;&lt;i&gt;&amp;gt;&amp;gt;&lt;/i&gt;&lt;br&gt;&lt;b&gt;AppModel&lt;/b&gt;&lt;/p&gt;&lt;hr size=&quot;1&quot;&gt;&lt;p style=&quot;margin:0px;margin-left:4px;&quot;&gt;&lt;br&gt;&lt;/p&gt;&lt;hr size=&quot;1&quot;&gt;&lt;p style=&quot;margin:0px;margin-left:4px;&quot;&gt;&lt;br&gt;&lt;/p&gt;" style="verticalAlign=top;align=left;overflow=fill;fontSize=12;fontFamily=Helvetica;html=1;" vertex="1" parent="1">
          <mxGeometry x="946" y="305" width="130" height="60" as="geometry" />
        </mxCell>
        <mxCell id="NxL4fcDI5rz3Jupc14Vp-8" value="&lt;p style=&quot;margin:0px;margin-top:4px;text-align:center;&quot;&gt;&lt;i&gt;&amp;lt;&amp;lt;&lt;/i&gt;&lt;i&gt;Javascript&lt;/i&gt;&lt;i&gt;&amp;gt;&amp;gt;&lt;/i&gt;&lt;br&gt;&lt;b&gt;Model&lt;/b&gt;&lt;/p&gt;&lt;hr size=&quot;1&quot;&gt;&lt;p style=&quot;margin:0px;margin-left:4px;&quot;&gt;&lt;br&gt;&lt;/p&gt;&lt;hr size=&quot;1&quot;&gt;&lt;p style=&quot;margin:0px;margin-left:4px;&quot;&gt;&lt;br&gt;&lt;/p&gt;" style="verticalAlign=top;align=left;overflow=fill;fontSize=12;fontFamily=Helvetica;html=1;" vertex="1" parent="1">
          <mxGeometry x="956.5" y="195" width="110" height="40" as="geometry" />
        </mxCell>
        <mxCell id="NxL4fcDI5rz3Jupc14Vp-9" value="&lt;p style=&quot;margin:0px;margin-top:4px;text-align:center;&quot;&gt;&lt;i&gt;&amp;lt;&amp;lt;Javascript&amp;gt;&amp;gt;&lt;/i&gt;&lt;br&gt;&lt;b&gt;ProxyView&lt;/b&gt;&lt;/p&gt;&lt;hr size=&quot;1&quot;&gt;&lt;p style=&quot;margin:0px;margin-left:4px;&quot;&gt;+ sockets: []&lt;/p&gt;&lt;p style=&quot;margin:0px;margin-left:4px;&quot;&gt;+ subscriptions: Map&amp;lt;Topic, Socket[]&amp;gt;&lt;/p&gt;&lt;hr size=&quot;1&quot;&gt;&lt;p style=&quot;margin:0px;margin-left:4px;&quot;&gt;&lt;br&gt;&lt;/p&gt;" style="verticalAlign=top;align=left;overflow=fill;fontSize=12;fontFamily=Helvetica;html=1;" vertex="1" parent="1">
          <mxGeometry x="1132.75" y="290" width="221.5" height="90" as="geometry" />
        </mxCell>
        <mxCell id="NxL4fcDI5rz3Jupc14Vp-10" value="communicate" style="edgeStyle=none;rounded=0;orthogonalLoop=1;jettySize=auto;html=1;exitX=0.5;exitY=0;exitDx=0;exitDy=0;entryX=0.5;entryY=1;entryDx=0;entryDy=0;startArrow=none;startFill=0;endArrow=none;endFill=0;startSize=15;endSize=13;" edge="1" parent="1" source="NxL4fcDI5rz3Jupc14Vp-11" target="NxL4fcDI5rz3Jupc14Vp-9">
          <mxGeometry relative="1" as="geometry" />
        </mxCell>
        <mxCell id="NxL4fcDI5rz3Jupc14Vp-11" value="&lt;p style=&quot;margin:0px;margin-top:4px;text-align:center;&quot;&gt;&lt;i&gt;&amp;lt;&amp;lt;Language&amp;gt;&amp;gt;&lt;/i&gt;&lt;br&gt;&lt;b&gt;CroquetClient&lt;/b&gt;&lt;/p&gt;&lt;hr size=&quot;1&quot;&gt;&lt;p style=&quot;margin:0px;margin-left:4px;&quot;&gt;&lt;br&gt;&lt;/p&gt;&lt;hr size=&quot;1&quot;&gt;&lt;p style=&quot;margin:0px;margin-left:4px;&quot;&gt;&lt;br&gt;&lt;/p&gt;" style="verticalAlign=top;align=left;overflow=fill;fontSize=12;fontFamily=Helvetica;html=1;" vertex="1" parent="1">
          <mxGeometry x="956.5" y="605" width="125" height="40" as="geometry" />
        </mxCell>
        <mxCell id="NxL4fcDI5rz3Jupc14Vp-12" value="communicate" style="edgeStyle=none;rounded=0;orthogonalLoop=1;jettySize=auto;html=1;exitX=0.5;exitY=0;exitDx=0;exitDy=0;entryX=0.5;entryY=1;entryDx=0;entryDy=0;startArrow=none;startFill=0;endArrow=none;endFill=0;startSize=15;endSize=13;" edge="1" parent="1" source="NxL4fcDI5rz3Jupc14Vp-13" target="NxL4fcDI5rz3Jupc14Vp-9">
          <mxGeometry x="-0.12" relative="1" as="geometry">
            <mxPoint as="offset" />
          </mxGeometry>
        </mxCell>
        <mxCell id="NxL4fcDI5rz3Jupc14Vp-13" value="&lt;p style=&quot;margin:0px;margin-top:4px;text-align:center;&quot;&gt;&lt;i&gt;&amp;lt;&amp;lt;&lt;/i&gt;&lt;i&gt;Language&lt;/i&gt;&lt;i&gt;&amp;gt;&amp;gt;&lt;/i&gt;&lt;br&gt;&lt;b&gt;CroquetClient&lt;/b&gt;&lt;/p&gt;&lt;hr size=&quot;1&quot;&gt;&lt;p style=&quot;margin:0px;margin-left:4px;&quot;&gt;&lt;br&gt;&lt;/p&gt;&lt;hr size=&quot;1&quot;&gt;&lt;p style=&quot;margin:0px;margin-left:4px;&quot;&gt;&lt;br&gt;&lt;/p&gt;" style="verticalAlign=top;align=left;overflow=fill;fontSize=12;fontFamily=Helvetica;html=1;" vertex="1" parent="1">
          <mxGeometry x="1181" y="605" width="125" height="40" as="geometry" />
        </mxCell>
        <mxCell id="NxL4fcDI5rz3Jupc14Vp-14" value="communicate" style="edgeStyle=none;rounded=0;orthogonalLoop=1;jettySize=auto;html=1;exitX=0.5;exitY=0;exitDx=0;exitDy=0;entryX=0.5;entryY=1;entryDx=0;entryDy=0;startArrow=none;startFill=0;endArrow=none;endFill=0;startSize=15;endSize=13;" edge="1" parent="1" source="NxL4fcDI5rz3Jupc14Vp-15" target="NxL4fcDI5rz3Jupc14Vp-9">
          <mxGeometry relative="1" as="geometry" />
        </mxCell>
        <mxCell id="NxL4fcDI5rz3Jupc14Vp-15" value="&lt;p style=&quot;margin:0px;margin-top:4px;text-align:center;&quot;&gt;&lt;i&gt;&amp;lt;&amp;lt;&lt;/i&gt;&lt;i&gt;Language&lt;/i&gt;&lt;i&gt;&amp;gt;&amp;gt;&lt;/i&gt;&lt;br&gt;&lt;b&gt;CroquetClient&lt;/b&gt;&lt;/p&gt;&lt;hr size=&quot;1&quot;&gt;&lt;p style=&quot;margin:0px;margin-left:4px;&quot;&gt;&lt;br&gt;&lt;/p&gt;&lt;hr size=&quot;1&quot;&gt;&lt;p style=&quot;margin:0px;margin-left:4px;&quot;&gt;&lt;br&gt;&lt;/p&gt;" style="verticalAlign=top;align=left;overflow=fill;fontSize=12;fontFamily=Helvetica;html=1;" vertex="1" parent="1">
          <mxGeometry x="1401" y="605" width="125" height="40" as="geometry" />
        </mxCell>
        <mxCell id="NxL4fcDI5rz3Jupc14Vp-16" value="use" style="edgeStyle=none;rounded=0;orthogonalLoop=1;jettySize=auto;html=1;exitX=0.5;exitY=0;exitDx=0;exitDy=0;entryX=0.5;entryY=1;entryDx=0;entryDy=0;startArrow=none;startFill=0;endArrow=none;endFill=0;startSize=15;endSize=13;" edge="1" parent="1" source="NxL4fcDI5rz3Jupc14Vp-17" target="NxL4fcDI5rz3Jupc14Vp-11">
          <mxGeometry relative="1" as="geometry" />
        </mxCell>
        <mxCell id="NxL4fcDI5rz3Jupc14Vp-17" value="&lt;p style=&quot;margin:0px;margin-top:4px;text-align:center;&quot;&gt;&lt;i&gt;&amp;lt;&amp;lt;&lt;/i&gt;&lt;i&gt;Language&lt;/i&gt;&lt;i&gt;&amp;gt;&amp;gt;&lt;/i&gt;&lt;br&gt;&lt;b&gt;ViewModel&lt;/b&gt;&lt;/p&gt;&lt;hr size=&quot;1&quot;&gt;&lt;p style=&quot;margin:0px;margin-left:4px;&quot;&gt;&lt;br&gt;&lt;/p&gt;&lt;hr size=&quot;1&quot;&gt;&lt;p style=&quot;margin:0px;margin-left:4px;&quot;&gt;&lt;br&gt;&lt;/p&gt;" style="verticalAlign=top;align=left;overflow=fill;fontSize=12;fontFamily=Helvetica;html=1;" vertex="1" parent="1">
          <mxGeometry x="956.5" y="685" width="125" height="40" as="geometry" />
        </mxCell>
        <mxCell id="NxL4fcDI5rz3Jupc14Vp-18" value="use" style="edgeStyle=none;rounded=0;orthogonalLoop=1;jettySize=auto;html=1;exitX=0.5;exitY=0;exitDx=0;exitDy=0;entryX=0.5;entryY=1;entryDx=0;entryDy=0;startArrow=none;startFill=0;endArrow=none;endFill=0;startSize=15;endSize=13;" edge="1" parent="1" source="NxL4fcDI5rz3Jupc14Vp-19" target="NxL4fcDI5rz3Jupc14Vp-13">
          <mxGeometry relative="1" as="geometry" />
        </mxCell>
        <mxCell id="NxL4fcDI5rz3Jupc14Vp-19" value="&lt;p style=&quot;margin:0px;margin-top:4px;text-align:center;&quot;&gt;&lt;i&gt;&amp;lt;&amp;lt;&lt;/i&gt;&lt;i&gt;Language&lt;/i&gt;&lt;i&gt;&amp;gt;&amp;gt;&lt;/i&gt;&lt;br&gt;&lt;b&gt;ViewModel&lt;/b&gt;&lt;/p&gt;&lt;hr size=&quot;1&quot;&gt;&lt;p style=&quot;margin:0px;margin-left:4px;&quot;&gt;&lt;br&gt;&lt;/p&gt;&lt;hr size=&quot;1&quot;&gt;&lt;p style=&quot;margin:0px;margin-left:4px;&quot;&gt;&lt;br&gt;&lt;/p&gt;" style="verticalAlign=top;align=left;overflow=fill;fontSize=12;fontFamily=Helvetica;html=1;" vertex="1" parent="1">
          <mxGeometry x="1181" y="685" width="125" height="40" as="geometry" />
        </mxCell>
        <mxCell id="NxL4fcDI5rz3Jupc14Vp-20" value="use" style="edgeStyle=none;rounded=0;orthogonalLoop=1;jettySize=auto;html=1;exitX=0.5;exitY=0;exitDx=0;exitDy=0;entryX=0.5;entryY=1;entryDx=0;entryDy=0;startArrow=none;startFill=0;endArrow=none;endFill=0;startSize=15;endSize=13;" edge="1" parent="1" source="NxL4fcDI5rz3Jupc14Vp-21" target="NxL4fcDI5rz3Jupc14Vp-15">
          <mxGeometry relative="1" as="geometry" />
        </mxCell>
        <mxCell id="NxL4fcDI5rz3Jupc14Vp-21" value="&lt;p style=&quot;margin:0px;margin-top:4px;text-align:center;&quot;&gt;&lt;i&gt;&amp;lt;&amp;lt;&lt;/i&gt;&lt;i&gt;Language&lt;/i&gt;&lt;i&gt;&amp;gt;&amp;gt;&lt;/i&gt;&lt;br&gt;&lt;b&gt;ViewModel&lt;/b&gt;&lt;/p&gt;&lt;hr size=&quot;1&quot;&gt;&lt;p style=&quot;margin:0px;margin-left:4px;&quot;&gt;&lt;br&gt;&lt;/p&gt;&lt;hr size=&quot;1&quot;&gt;&lt;p style=&quot;margin:0px;margin-left:4px;&quot;&gt;&lt;br&gt;&lt;/p&gt;" style="verticalAlign=top;align=left;overflow=fill;fontSize=12;fontFamily=Helvetica;html=1;" vertex="1" parent="1">
          <mxGeometry x="1401" y="685" width="125" height="40" as="geometry" />
        </mxCell>
        <mxCell id="NxL4fcDI5rz3Jupc14Vp-22" style="edgeStyle=none;rounded=0;orthogonalLoop=1;jettySize=auto;html=1;entryX=1;entryY=0.5;entryDx=0;entryDy=0;startArrow=none;startFill=0;endArrow=none;endFill=0;startSize=15;endSize=13;" edge="1" parent="1" source="NxL4fcDI5rz3Jupc14Vp-21" target="NxL4fcDI5rz3Jupc14Vp-21">
          <mxGeometry relative="1" as="geometry" />
        </mxCell>
      </root>
    </mxGraphModel>
  </diagram>
</mxfile>
